Amstelvar-Roman-opsz144-wght900-wdth100.ufo
<glyph name="numbersign" format="2">
	<unicode hex="0023"/>
	<advance width="1113"/>
	<outline>
		<contour>
			<point x="1" y="369" type="line"/>
			<point x="1" y="633" type="line"/>
			<point x="1036.7580645161" y="633" type="line"/>
			<point x="1036.7580645161" y="369" type="line"/>
		</contour>
		<contour>
			<point x="76" y="851" type="line"/>
			<point x="76" y="1115" type="line"/>
			<point x="1110.7580645161" y="1115" type="line"/>
			<point x="1110.7580645161" y="851" type="line"/>
		</contour>
		<contour>
			<point x="202" y="-66" type="line"/>
			<point x="394" y="1527" type="line"/>
			<point x="464" y="1527" type="line"/>
			<point x="271" y="-66" type="line"/>
		</contour>
		<contour>
			<point x="640.7580645161" y="-66" type="line"/>
			<point x="833.7580645161" y="1527" type="line"/>
			<point x="902.7580645161" y="1527" type="line"/>
			<point x="709.7580645161" y="-66" type="line"/>
		</contour>
	</outline>
</glyph>
<glyph name="percent" format="2">
	<unicode hex="0025"/>
	<advance width="2214"/>
	<outline>
		<contour>
			<point x="32" y="1115" type="qcurve" smooth="yes"/>
			<point x="32" y="1292"/>
			<point x="330.0322580645" y="1520"/>
			<point x="551.5967741935" y="1520" type="qcurve" smooth="yes"/>
			<point x="786.4435483871" y="1520"/>
			<point x="1075.0403225806" y="1311"/>
			<point x="1075.0403225806" y="1119" type="qcurve" smooth="yes"/>
			<point x="1075.0403225806" y="927"/>
			<point x="791.2903225806" y="683"/>
			<point x="557.7258064516" y="683" type="qcurve" smooth="yes"/>
			<point x="322.8790322581" y="683"/>
			<point x="32" y="930"/>
		</contour>
		<contour>
			<point x="372.564516129" y="1121" type="qcurve" smooth="yes"/>
			<point x="373.564516129" y="911"/>
			<point x="468.75" y="708"/>
			<point x="552.4435483871" y="708" type="qcurve" smooth="yes"/>
			<point x="641.1129032258" y="708"/>
			<point x="732.6048387097" y="887"/>
			<point x="732.6048387097" y="1118" type="qcurve" smooth="yes"/>
			<point x="732.6048387097" y="1340"/>
			<point x="637.4193548387" y="1496"/>
			<point x="552.7258064516" y="1496" type="qcurve" smooth="yes"/>
			<point x="463.4919354839" y="1496"/>
			<point x="372" y="1334"/>
		</contour>
		<contour>
			<point x="616.6774193548" y="28" type="line"/>
			<point x="1515" y="1522" type="line"/>
			<point x="1596" y="1465" type="line"/>
			<point x="694.6774193548" y="-34" type="line"/>
		</contour>
		<contour>
			<point x="1139.3548387097" y="436" type="qcurve" smooth="yes"/>
			<point x="1139.3548387097" y="614"/>
			<point x="1437.3870967742" y="826"/>
			<point x="1658.9516129032" y="826" type="qcurve" smooth="yes"/>
			<point x="1892.7983870968" y="826"/>
			<point x="2182.3951612903" y="633"/>
			<point x="2182.3951612903" y="440" type="qcurve" smooth="yes"/>
			<point x="2182.3951612903" y="231"/>
			<point x="1898.6451612903" y="-10"/>
			<point x="1665.0806451613" y="-10" type="qcurve" smooth="yes"/>
			<point x="1430.2338709677" y="-10"/>
			<point x="1139.3548387097" y="235"/>
		</contour>
		<contour>
			<point x="1479.3548387097" y="447" type="qcurve" smooth="yes"/>
			<point x="1480.3548387097" y="218"/>
			<point x="1575.1048387097" y="14"/>
			<point x="1660.2338709677" y="14" type="qcurve" smooth="yes"/>
			<point x="1748.185483871" y="14"/>
			<point x="1839.3951612903" y="189"/>
			<point x="1839.3951612903" y="443" type="qcurve" smooth="yes"/>
			<point x="1839.3951612903" y="665"/>
			<point x="1744.2096774194" y="803"/>
			<point x="1658.7983870968" y="803" type="qcurve" smooth="yes"/>
			<point x="1569.564516129" y="803"/>
			<point x="1478.3548387097" y="659"/>
		</contour>
	</outline>
</glyph>
<glyph name="quotesingle" format="2">
	<unicode hex="0027"/>
	<advance width="538"/>
	<outline>
		<contour>
			<point x="250" y="807" type="line"/>
			<point x="83" y="1353" type="line"/>
			<point x="83" y="1432"/>
			<point x="165" y="1558"/>
			<point x="268" y="1558" type="qcurve" smooth="yes"/>
			<point x="371" y="1558"/>
			<point x="455" y="1432"/>
			<point x="455" y="1353" type="qcurve"/>
			<point x="286" y="807" type="line"/>
		</contour>
	</outline>
</glyph>
<glyph name="asterisk" format="2">
	<unicode hex="002A"/>
	<advance width="752"/>
	<outline>
		<contour>
			<point x="375" y="773" type="qcurve" smooth="yes"/>
			<point x="312" y="773"/>
			<point x="238" y="867"/>
			<point x="260" y="915" type="qcurve" smooth="yes"/>
			<point x="350" y="1108" type="line"/>
			<point x="346" y="1111" type="line"/>
			<point x="220" y="938" type="line" smooth="yes"/>
			<point x="196" y="906"/>
			<point x="80" y="918"/>
			<point x="51" y="965" type="qcurve" smooth="yes"/>
			<point x="22" y="1012"/>
			<point x="60" y="1134"/>
			<point x="117" y="1138" type="qcurve" smooth="yes"/>
			<point x="321" y="1156" type="line"/>
			<point x="321" y="1159" type="line"/>
			<point x="118" y="1175" type="line" smooth="yes"/>
			<point x="47" y="1180"/>
			<point x="21" y="1295"/>
			<point x="51" y="1348" type="qcurve" smooth="yes"/>
			<point x="81" y="1400"/>
			<point x="175" y="1435"/>
			<point x="219" y="1376" type="qcurve" smooth="yes"/>
			<point x="347" y="1202" type="line"/>
			<point x="350" y="1205" type="line"/>
			<point x="262" y="1399" type="line" smooth="yes"/>
			<point x="232" y="1465"/>
			<point x="307" y="1540"/>
			<point x="374" y="1540" type="qcurve" smooth="yes"/>
			<point x="441" y="1540"/>
			<point x="516" y="1466"/>
			<point x="485" y="1399" type="qcurve" smooth="yes"/>
			<point x="399" y="1207" type="line"/>
			<point x="404" y="1204" type="line"/>
			<point x="526" y="1376" type="line" smooth="yes"/>
			<point x="570" y="1440"/>
			<point x="669" y="1403"/>
			<point x="698" y="1349" type="qcurve" smooth="yes"/>
			<point x="727" y="1295"/>
			<point x="703" y="1184"/>
			<point x="632" y="1177" type="qcurve" smooth="yes"/>
			<point x="427" y="1158" type="line"/>
			<point x="427" y="1155" type="line"/>
			<point x="632" y="1138" type="line" smooth="yes"/>
			<point x="704" y="1132"/>
			<point x="728" y="1017"/>
			<point x="698" y="965" type="qcurve" smooth="yes"/>
			<point x="667" y="913"/>
			<point x="570" y="873"/>
			<point x="526" y="937" type="qcurve" smooth="yes"/>
			<point x="404" y="1111" type="line"/>
			<point x="398" y="1108" type="line"/>
			<point x="488" y="915" type="line" smooth="yes"/>
			<point x="511" y="865"/>
			<point x="437" y="773"/>
		</contour>
	</outline>
</glyph>
<glyph name="I" format="2">
	<unicode hex="0049"/>
	<advance width="817"/>
	<outline>
		<contour>
			<point x="21" y="0" type="line"/>
			<point x="21" y="55" type="line"/>
			<point x="164" y="90" type="line"/>
			<point x="166" y="754" type="line"/>
			<point x="164" y="1407" type="line"/>
			<point x="21" y="1441" type="line"/>
			<point x="21" y="1500" type="line"/>
			<point x="796" y="1500" type="line"/>
			<point x="796" y="1441" type="line"/>
			<point x="653" y="1407" type="line"/>
			<point x="651" y="754" type="line"/>
			<point x="653" y="90" type="line"/>
			<point x="796" y="55" type="line"/>
			<point x="796" y="0" type="line"/>
		</contour>
	</outline>
</glyph>
<glyph name="asciicircum" format="2">
	<unicode hex="005E"/>
	<advance width="1224"/>
	<outline>
		<contour>
			<point x="106" y="980" type="line"/>
			<point x="155" y="1051.5887096774"/>
			<point x="598.2258064516" y="1517"/>
			<point x="598.2258064516" y="1517" type="qcurve"/>
			<point x="603.2258064516" y="1517"/>
			<point x="1061.4516129032" y="1049.3064516129"/>
			<point x="1118.4516129032" y="981" type="qcurve"/>
			<point x="1043.4516129032" y="929" type="line"/>
			<point x="931.4516129032" y="1033.3064516129"/>
			<point x="598.2258064516" y="1271"/>
			<point x="598.2258064516" y="1271" type="qcurve"/>
			<point x="598.2258064516" y="1271"/>
			<point x="287" y="1036.5887096774"/>
			<point x="181" y="928" type="qcurve"/>
		</contour>
	</outline>
</glyph>
<glyph name="underscore" format="2">
	<unicode hex="005F"/>
	<advance width="1313"/>
	<outline>
		<contour>
			<point x="-14" y="-560" type="line"/>
			<point x="-14" y="-335" type="line"/>
			<point x="650" y="-330" type="line"/>
			<point x="1327" y="-335" type="line"/>
			<point x="1327" y="-560" type="line"/>
			<point x="650" y="-556" type="line"/>
		</contour>
	</outline>
</glyph>
<glyph name="z" format="2">
	<unicode hex="007A"/>
	<advance width="1050"/>
	<outline>
		<contour>
			<point x="34" y="0" type="line"/>
			<point x="34" y="69" type="line"/>
			<point x="492" y="892" type="line"/>
			<point x="261" y="892" type="line"/>
			<point x="164" y="635" type="line"/>
			<point x="91" y="635" type="line"/>
			<point x="91" y="970" type="line"/>
			<point x="985" y="970" type="line"/>
			<point x="985" y="896" type="line"/>
			<point x="557" y="78" type="line"/>
			<point x="844" y="78" type="line"/>
			<point x="953" y="327" type="line"/>
			<point x="1025" y="327" type="line"/>
			<point x="1025" y="0" type="line"/>
		</contour>
	</outline>
</glyph>
<glyph name="braceright" format="2">
	<unicode hex="007D"/>
	<advance width="712"/>
	<outline>
		<contour>
			<point x="16" y="-112" type="qcurve"/>
			<point x="16" y="-85" type="line"/>
			<point x="46" y="-86"/>
			<point x="91" y="-85"/>
			<point x="110" y="-85" type="qcurve" smooth="yes"/>
			<point x="207" y="-85"/>
			<point x="271" y="38"/>
			<point x="271" y="127" type="qcurve" smooth="yes"/>
			<point x="271" y="212"/>
			<point x="95" y="472"/>
			<point x="95" y="572" type="qcurve" smooth="yes"/>
			<point x="95" y="649"/>
			<point x="202" y="727"/>
			<point x="322" y="748" type="qcurve"/>
			<point x="204" y="772"/>
			<point x="95" y="842"/>
			<point x="95" y="900" type="qcurve" smooth="yes"/>
			<point x="95" y="994"/>
			<point x="241" y="1196"/>
			<point x="241" y="1280" type="qcurve" smooth="yes"/>
			<point x="241" y="1376"/>
			<point x="167" y="1473"/>
			<point x="70" y="1473" type="qcurve" smooth="yes"/>
			<point x="52" y="1473"/>
			<point x="33" y="1473"/>
			<point x="14" y="1471" type="qcurve"/>
			<point x="14" y="1500" type="line"/>
			<point x="39" y="1503"/>
			<point x="275" y="1510"/>
			<point x="304" y="1510" type="qcurve" smooth="yes"/>
			<point x="420" y="1510"/>
			<point x="617" y="1372"/>
			<point x="617" y="1247" type="qcurve" smooth="yes"/>
			<point x="617" y="1154"/>
			<point x="448" y="974"/>
			<point x="448" y="899" type="qcurve" smooth="yes"/>
			<point x="448" y="812"/>
			<point x="552" y="756"/>
			<point x="619" y="755" type="qcurve" smooth="yes"/>
			<point x="679" y="757" type="line"/>
			<point x="679" y="721" type="line"/>
			<point x="456" y="708" type="line"/>
			<point x="456" y="666" type="line"/>
			<point x="456" y="546"/>
			<point x="646" y="250"/>
			<point x="647" y="149" type="qcurve" smooth="yes"/>
			<point x="648" y="22"/>
			<point x="457" y="-125"/>
			<point x="309" y="-125" type="qcurve" smooth="yes"/>
			<point x="283" y="-125"/>
			<point x="42" y="-116"/>
		</contour>
	</outline>
</glyph>
<glyph name="sterling" format="2">
	<unicode hex="00A3"/>
	<advance width="1148"/>
	<outline>
		<contour>
			<point x="750.64" y="528.5" type="qcurve" smooth="yes"/>
			<point x="750.64" y="414.07"/>
			<point x="606.66" y="249.76"/>
			<point x="487.37" y="212.86" type="qcurve"/>
			<point x="493.52" y="208" type="line"/>
			<point x="981.76" y="208" type="line"/>
			<point x="1088.53" y="422" type="line"/>
			<point x="1142.55" y="422" type="line"/>
			<point x="1057.45" y="0" type="line"/>
			<point x="69.31" y="0" type="line"/>
			<point x="36.87" y="88.7" type="line"/>
			<point x="100.56" y="169.66" type="line"/>
			<point x="287.96" y="183.91"/>
			<point x="443.85" y="315.52"/>
			<point x="443.85" y="410.21" type="qcurve" smooth="yes"/>
			<point x="443.85" y="480.67"/>
			<point x="350.07" y="637.27"/>
			<point x="292.18" y="724.43" type="qcurve" smooth="yes"/>
			<point x="228.17" y="822.41"/>
			<point x="114.17" y="1037.93"/>
			<point x="114.17" y="1150.17" type="qcurve" smooth="yes"/>
			<point x="114.17" y="1307.14"/>
			<point x="373.53" y="1527.72"/>
			<point x="617.21" y="1527.72" type="qcurve" smooth="yes"/>
			<point x="808.81" y="1527.72"/>
			<point x="1037.27" y="1427.58"/>
			<point x="1101.74" y="1348.59" type="qcurve"/>
			<point x="1066.16" y="1276.67" type="line"/>
			<point x="1009.43" y="1339.24"/>
			<point x="860.52" y="1407.02"/>
			<point x="767.28" y="1407.02" type="qcurve" smooth="yes"/>
			<point x="676.51" y="1407.02"/>
			<point x="581.6" y="1291.42"/>
			<point x="581.6" y="1185.57" type="qcurve" smooth="yes"/>
			<point x="581.6" y="1093.63"/>
			<point x="629.05" y="931.23"/>
			<point x="662.62" y="840.54" type="qcurve" smooth="yes"/>
			<point x="696.91" y="750.84"/>
			<point x="750.64" y="602.07"/>
		</contour>
		<contour>
			<point x="126.6" y="629.55" type="line"/>
			<point x="99.59" y="738.4" type="line"/>
			<point x="1033.99" y="738.4" type="line"/>
			<point x="1010.12" y="629.55" type="line"/>
		</contour>
	</outline>
</glyph>
<glyph name="currency" format="2">
	<unicode hex="00A4"/>
	<advance width="1129"/>
	<outline>
		<contour>
			<point x="171.2550806452" y="869.0548387097" type="qcurve" smooth="yes"/>
			<point x="171.2550806452" y="1025.5148387097"/>
			<point x="383.4250806452" y="1252.1148387097"/>
			<point x="554.8750806452" y="1252.1148387097" type="qcurve" smooth="yes"/>
			<point x="729.3250806452" y="1252.1148387097"/>
			<point x="944.6350806452" y="1040.3748387097"/>
			<point x="944.6350806452" y="873.4848387097" type="qcurve" smooth="yes"/>
			<point x="944.6350806452" y="717.0248387097"/>
			<point x="733.3250806452" y="484.9948387097"/>
			<point x="559.8750806452" y="484.9948387097" type="qcurve" smooth="yes"/>
			<point x="387.4250806452" y="484.9948387097"/>
			<point x="171.2550806452" y="700.1648387097"/>
		</contour>
		<contour>
			<point x="367.84" y="877.36" type="qcurve" smooth="yes"/>
			<point x="368.98" y="790.06"/>
			<point x="467.27" y="663.48"/>
			<point x="553.4" y="663.48" type="qcurve" smooth="yes"/>
			<point x="648.1" y="663.48"/>
			<point x="740.96" y="777.63"/>
			<point x="740.96" y="871.5" type="qcurve" smooth="yes"/>
			<point x="740.96" y="953.66"/>
			<point x="643.1" y="1068.95"/>
			<point x="555.4" y="1068.95" type="qcurve" smooth="yes"/>
			<point x="461.27" y="1068.95"/>
			<point x="366.84" y="963.66"/>
		</contour>
		<contour>
			<point x="334.94" y="1103.88" type="line"/>
			<point x="96.21" y="1334.86" type="line"/>
			<point x="157.39" y="1396.02" type="line"/>
			<point x="383.27" y="1150.33" type="line"/>
		</contour>
		<contour>
			<point x="788.44" y="1081.6" type="line"/>
			<point x="740.97" y="1127.62" type="line"/>
			<point x="977.99" y="1396.02" type="line"/>
			<point x="1039.17" y="1334.86" type="line"/>
		</contour>
		<contour>
			<point x="346.51" y="638.4" type="line"/>
			<point x="398.28" y="592.38" type="line"/>
			<point x="161.26" y="324.98" type="line"/>
			<point x="96.64" y="385.57" type="line"/>
		</contour>
		<contour>
			<point x="777.3" y="649.54" type="line"/>
			<point x="1039.17" y="385.57" type="line"/>
			<point x="977.99" y="324.98" type="line"/>
			<point x="729.83" y="603.52" type="line"/>
		</contour>
	</outline>
</glyph>
<glyph name="section" format="2">
	<unicode hex="00A7"/>
	<advance width="1218"/>
	<outline>
		<contour>
			<point x="1145.61" y="190.32" type="qcurve" smooth="yes"/>
			<point x="1145.61" y="-12.34"/>
			<point x="859.62" y="-223"/>
			<point x="640.09" y="-223" type="qcurve" smooth="yes"/>
			<point x="486.48" y="-223"/>
			<point x="279.66" y="-151.04"/>
			<point x="235.15" y="-115" type="qcurve"/>
			<point x="185.12" y="-215" type="line"/>
			<point x="130.76" y="-215" type="line"/>
			<point x="130.76" y="236" type="line"/>
			<point x="181.52" y="236" type="line"/>
			<point x="192.82" y="179" type="line" smooth="yes"/>
			<point x="226.29" y="2.31"/>
			<point x="472.44" y="-166.8"/>
			<point x="621.91" y="-166.8" type="qcurve" smooth="yes"/>
			<point x="754.44" y="-166.8"/>
			<point x="906.28" y="-49.1"/>
			<point x="906.28" y="48.89" type="qcurve" smooth="yes"/>
			<point x="906.28" y="150.74"/>
			<point x="730.56" y="252.46"/>
			<point x="525.15" y="319.6" type="qcurve" smooth="yes"/>
			<point x="279.53" y="398.04"/>
			<point x="93.63" y="562.89"/>
			<point x="93.63" y="706.18" type="qcurve" smooth="yes"/>
			<point x="93.63" y="810.61"/>
			<point x="190.39" y="957.85"/>
			<point x="257.74" y="993.14" type="qcurve"/>
			<point x="209.1" y="1036.73"/>
			<point x="176.39" y="1141.03"/>
			<point x="176.82" y="1208.32" type="qcurve" smooth="yes"/>
			<point x="177.68" y="1339.43"/>
			<point x="411.66" y="1512"/>
			<point x="591.07" y="1512" type="qcurve" smooth="yes"/>
			<point x="701.37" y="1512"/>
			<point x="865.88" y="1467.03"/>
			<point x="913.91" y="1432.47" type="qcurve"/>
			<point x="936.05" y="1480" type="line"/>
			<point x="983.08" y="1480" type="line"/>
			<point x="983.08" y="1164" type="line"/>
			<point x="930.18" y="1164" type="line"/>
			<point x="913.74" y="1234" type="line" smooth="yes"/>
			<point x="892.15" y="1330.57"/>
			<point x="733.62" y="1441"/>
			<point x="642.54" y="1441" type="qcurve" smooth="yes"/>
			<point x="545.17" y="1441"/>
			<point x="450.37" y="1366.84"/>
			<point x="450.37" y="1314.54" type="qcurve" smooth="yes"/>
			<point x="450.37" y="1259.1"/>
			<point x="574.59" y="1180.26"/>
			<point x="728.72" y="1130.96" type="qcurve" smooth="yes"/>
			<point x="937.55" y="1062.96"/>
			<point x="1123.86" y="906"/>
			<point x="1123.86" y="769" type="qcurve" smooth="yes"/>
			<point x="1123.86" y="688.42"/>
			<point x="1035.9" y="555.84"/>
			<point x="945.2" y="519.53" type="qcurve"/>
			<point x="1060.79" y="452.51"/>
			<point x="1145.61" y="298.49"/>
		</contour>
		<contour>
			<point x="252.88" y="869.01" type="qcurve" smooth="yes"/>
			<point x="251.17" y="794.75"/>
			<point x="683.41" y="638.12"/>
			<point x="878.5" y="551.56" type="qcurve"/>
			<point x="931.47" y="565.29"/>
			<point x="959.82" y="603.89"/>
			<point x="959.82" y="629.91" type="qcurve" smooth="yes"/>
			<point x="959.82" y="673.78"/>
			<point x="818.39" y="747.04"/>
			<point x="604.26" y="821.76" type="qcurve" smooth="yes"/>
			<point x="519.8" y="851.47"/>
			<point x="362.54" y="913.16"/>
			<point x="306.69" y="958.82" type="qcurve"/>
			<point x="282.8" y="939.81"/>
			<point x="253.45" y="894.76"/>
		</contour>
	</outline>
</glyph>
<glyph name="copyright" format="2">
	<unicode hex="00A9"/>
	<advance width="1798"/>
	<outline>
		<contour>
			<point x="482" y="652" type="qcurve" smooth="yes"/>
			<point x="482" y="880"/>
			<point x="740" y="1103"/>
			<point x="928" y="1103" type="qcurve" smooth="yes"/>
			<point x="1016" y="1103"/>
			<point x="1113" y="1071"/>
			<point x="1149" y="1049" type="qcurve"/>
			<point x="1189" y="1093" type="line"/>
			<point x="1245" y="1095" type="line"/>
			<point x="1248" y="803" type="line"/>
			<point x="1190" y="800" type="line"/>
			<point x="1175" y="859" type="line" smooth="yes"/>
			<point x="1158" y="934"/>
			<point x="1072" y="1034"/>
			<point x="985" y="1034" type="qcurve" smooth="yes"/>
			<point x="902" y="1034"/>
			<point x="814" y="866"/>
			<point x="814" y="673" type="qcurve" smooth="yes"/>
			<point x="814" y="488"/>
			<point x="922" y="349"/>
			<point x="1037" y="349" type="qcurve" smooth="yes"/>
			<point x="1112" y="349"/>
			<point x="1206" y="391"/>
			<point x="1244" y="444" type="qcurve"/>
			<point x="1278" y="418" type="line"/>
			<point x="1251" y="345"/>
			<point x="1060" y="218"/>
			<point x="923" y="218" type="qcurve" smooth="yes"/>
			<point x="734" y="218"/>
			<point x="482" y="442"/>
		</contour>
		<contour>
			<point x="72" y="675" type="qcurve" smooth="yes"/>
			<point x="72" y="1031"/>
			<point x="534" y="1516"/>
			<point x="897" y="1516" type="qcurve" smooth="yes"/>
			<point x="1260" y="1516"/>
			<point x="1726" y="1056"/>
			<point x="1726" y="696" type="qcurve" smooth="yes"/>
			<point x="1726" y="301"/>
			<point x="1287" y="-196"/>
			<point x="911" y="-196" type="qcurve" smooth="yes"/>
			<point x="535" y="-196"/>
			<point x="72" y="289"/>
		</contour>
		<contour>
			<point x="151" y="669" type="qcurve" smooth="yes"/>
			<point x="151" y="317"/>
			<point x="583" y="-135"/>
			<point x="905" y="-136" type="qcurve" smooth="yes"/>
			<point x="1227" y="-137"/>
			<point x="1648" y="321"/>
			<point x="1648" y="686" type="qcurve" smooth="yes"/>
			<point x="1648" y="1001"/>
			<point x="1202" y="1453"/>
			<point x="894" y="1453" type="qcurve" smooth="yes"/>
			<point x="586" y="1453"/>
			<point x="151" y="993"/>
		</contour>
	</outline>
</glyph>
<glyph name="guillemetleft" format="2">
	<unicode hex="00AB"/>
	<advance width="1357"/>
	<outline>
		<contour>
			<point x="61.5" y="655.15" type="line"/>
			<point x="122" y="694"/>
			<point x="568.55" y="974"/>
			<point x="610.3" y="1005" type="qcurve" smooth="yes"/>
			<point x="640.04" y="1027"/>
			<point x="698.64" y="959.8"/>
			<point x="659.32" y="903.8" type="qcurve" smooth="yes"/>
			<point x="640.59" y="877.8"/>
			<point x="420.06" y="634.86"/>
			<point x="398.6" y="614" type="qcurve"/>
			<point x="416.34" y="590.85"/>
			<point x="631.03" y="358.61"/>
			<point x="658.34" y="324.9" type="qcurve" smooth="yes"/>
			<point x="694.66" y="279.19"/>
			<point x="647.19" y="205"/>
			<point x="596.86" y="232" type="qcurve" smooth="yes"/>
			<point x="545.53" y="260"/>
			<point x="120.5" y="530.85"/>
			<point x="61.5" y="573.85" type="qcurve"/>
		</contour>
		<contour>
			<point x="647.5" y="655.15" type="line"/>
			<point x="715" y="697"/>
			<point x="1154.55" y="974"/>
			<point x="1196.3" y="1005" type="qcurve" smooth="yes"/>
			<point x="1226.04" y="1027"/>
			<point x="1284.64" y="959.8"/>
			<point x="1245.32" y="903.8" type="qcurve" smooth="yes"/>
			<point x="1226.59" y="877.8"/>
			<point x="1006.06" y="634.86"/>
			<point x="984.6" y="614" type="qcurve"/>
			<point x="1002.34" y="590.85"/>
			<point x="1217.03" y="358.61"/>
			<point x="1244.34" y="324.9" type="qcurve" smooth="yes"/>
			<point x="1280.66" y="279.19"/>
			<point x="1233.19" y="205"/>
			<point x="1182.86" y="232" type="qcurve" smooth="yes"/>
			<point x="1131.53" y="260"/>
			<point x="706.5" y="530.85"/>
			<point x="647.5" y="573.85" type="qcurve"/>
		</contour>
	</outline>
</glyph>
<glyph name="logicalnot" format="2">
	<unicode hex="00AC"/>
	<advance width="919"/>
	<outline>
		<contour>
			<point x="83.96" y="877.12" type="line"/>
			<point x="845.35" y="877.12" type="line"/>
			<point x="845.35" y="399.05" type="line"/>
			<point x="595.25" y="399.05" type="line"/>
			<point x="595.25" y="660.82" type="line"/>
			<point x="83.96" y="660.82" type="line"/>
		</contour>
	</outline>
</glyph>
<glyph name="macron" format="2">
	<unicode hex="00AF"/>
	<advance width="896"/>
	<outline>
		<contour>
			<point x="147.43" y="1050.95" type="line"/>
			<point x="147.43" y="1225.67" type="line"/>
			<point x="748.57" y="1225.67" type="line"/>
			<point x="748.57" y="1050.95" type="line"/>
		</contour>
	</outline>
</glyph>
<glyph name="micro" format="2">
	<unicode hex="00B5"/>
	<advance width="1577"/>
	<outline>
		<contour>
			<point x="-35.95" y="-334" type="line"/>
			<point x="4.35" y="-312" type="line"/>
			<point x="51.2612851461" y="-119.8448594154"/>
			<point x="156.42" y="329.57"/>
			<point x="191.7" y="479" type="qcurve" smooth="yes"/>
			<point x="285.99" y="855.84" type="line"/>
			<point x="129.33" y="879.25" type="line"/>
			<point x="133.33" y="937.69" type="line"/>
			<point x="628.59" y="975.7" type="line"/>
			<point x="715.19" y="975.7" type="line"/>
			<point x="747.05" y="899.4" type="line"/>
			<point x="576.44" y="243.81" type="line" smooth="yes"/>
			<point x="559.15" y="175.06"/>
			<point x="600.94" y="103.33"/>
			<point x="666.48" y="103.9" type="qcurve"/>
			<point x="760.78" y="103.33"/>
			<point x="880.46" y="170.05"/>
			<point x="904.93" y="215.92" type="qcurve" smooth="yes"/>
			<point x="1071.85" y="802.27" type="line"/>
			<point x="1026.08" y="955.37" type="line"/>
			<point x="1502.88" y="972.37" type="line"/>
			<point x="1526.27" y="858.8" type="line"/>
			<point x="1402.98" y="450" type="line"/>
			<point x="1341.13" y="167" type="line"/>
			<point x="1489.42" y="150.48" type="line"/>
			<point x="1486.71" y="93" type="line"/>
			<point x="1007.67" y="-6" type="line"/>
			<point x="953.25" y="8.75" type="line"/>
			<point x="933.59" y="135.2" type="line"/>
			<point x="895.97" y="78.89"/>
			<point x="742.78" y="3.69"/>
			<point x="619.65" y="-5.77" type="qcurve" smooth="yes"/>
			<point x="570.28" y="-8.78"/>
			<point x="507.32" y="-3.64"/>
			<point x="490.59" y="1.37" type="qcurve"/>
			<point x="420.76" y="-300.82" type="line"/>
			<point x="512.76" y="-306.1" type="line"/>
			<point x="506.89" y="-387.1" type="line"/>
			<point x="-33.95" y="-408" type="line"/>
		</contour>
	</outline>
</glyph>
<glyph name="paragraph" format="2">
	<unicode hex="00B6"/>
	<advance width="1170"/>
	<outline>
		<contour>
			<point x="1144.83" y="52.72" type="line"/>
			<point x="1144.83" y="0" type="line"/>
			<point x="245.93" y="0" type="line"/>
			<point x="245.93" y="57.16" type="line"/>
			<point x="874.95" y="81.3" type="line"/>
			<point x="876.95" y="714.1" type="line"/>
			<point x="829.35" y="708.1"/>
			<point x="581.85" y="700.1"/>
			<point x="488.45" y="700.1" type="qcurve" smooth="yes"/>
			<point x="295.45" y="700.1"/>
			<point x="27.93" y="898.79"/>
			<point x="27.93" y="1104.79" type="qcurve" smooth="yes"/>
			<point x="27.93" y="1280.09"/>
			<point x="284.33" y="1500"/>
			<point x="480.63" y="1500" type="qcurve" smooth="yes"/>
			<point x="1137.83" y="1500" type="line"/>
			<point x="1137.83" y="1440.42" type="line"/>
			<point x="989.53" y="1406.42" type="line"/>
			<point x="987.53" y="754" type="line"/>
			<point x="989.53" y="79.59" type="line"/>
		</contour>
		<contour>
			<point x="545.95" y="44" type="line"/>
			<point x="441.23" y="44" type="line"/>
			<point x="443.23" y="734.1" type="line"/>
			<point x="543.95" y="731.1" type="line"/>
		</contour>
	</outline>
</glyph>
<glyph name="guillemetright" format="2">
	<unicode hex="00BB"/>
	<advance width="1357"/>
	<outline>
		<contour>
			<point x="1295.94" y="576.85" type="line"/>
			<point x="1232" y="535"/>
			<point x="788.89" y="258"/>
			<point x="747.14" y="227" type="qcurve" smooth="yes"/>
			<point x="717.4" y="205"/>
			<point x="658.8" y="272.2"/>
			<point x="698.12" y="328.2" type="qcurve" smooth="yes"/>
			<point x="716.85" y="354.2"/>
			<point x="937.38" y="597.14"/>
			<point x="958.84" y="618" type="qcurve"/>
			<point x="941.1" y="641.15"/>
			<point x="726.41" y="873.39"/>
			<point x="699.1" y="907.1" type="qcurve" smooth="yes"/>
			<point x="662.78" y="952.81"/>
			<point x="710.25" y="1027"/>
			<point x="760.58" y="1000" type="qcurve" smooth="yes"/>
			<point x="811.91" y="972"/>
			<point x="1236.94" y="701.15"/>
			<point x="1295.94" y="658.15" type="qcurve"/>
		</contour>
		<contour>
			<point x="709.94" y="576.85" type="line"/>
			<point x="645" y="534"/>
			<point x="202.89" y="258"/>
			<point x="161.14" y="227" type="qcurve" smooth="yes"/>
			<point x="131.4" y="205"/>
			<point x="72.8" y="272.2"/>
			<point x="112.12" y="328.2" type="qcurve" smooth="yes"/>
			<point x="130.85" y="354.2"/>
			<point x="351.38" y="597.14"/>
			<point x="372.84" y="618" type="qcurve"/>
			<point x="355.1" y="641.15"/>
			<point x="140.41" y="873.39"/>
			<point x="113.1" y="907.1" type="qcurve" smooth="yes"/>
			<point x="76.78" y="952.81"/>
			<point x="124.25" y="1027"/>
			<point x="174.58" y="1000" type="qcurve" smooth="yes"/>
			<point x="225.91" y="972"/>
			<point x="650.94" y="701.15"/>
			<point x="709.94" y="658.15" type="qcurve"/>
		</contour>
	</outline>
</glyph>
<glyph name="germandbls" format="2">
	<unicode hex="00DF"/>
	<advance width="1706"/>
	<outline>
		<contour>
			<point x="1274.54" y="1241.93" type="qcurve" smooth="yes"/>
			<point x="1274.54" y="1153.65"/>
			<point x="1163.39" y="1017.59"/>
			<point x="1086.96" y="959.96" type="qcurve" smooth="yes"/>
			<point x="1059.07" y="939.25"/>
			<point x="1009.57" y="885.83"/>
			<point x="1009.57" y="855.4" type="qcurve" smooth="yes"/>
			<point x="1009.57" y="806.56"/>
			<point x="1147.39" y="723.46"/>
			<point x="1288.1" y="666.99" type="qcurve" smooth="yes"/>
			<point x="1483.35" y="589.69"/>
			<point x="1649.45" y="429.72"/>
			<point x="1649.45" y="309.6" type="qcurve" smooth="yes"/>
			<point x="1649.45" y="159.25"/>
			<point x="1393.03" y="-19.56"/>
			<point x="1161.68" y="-19.56" type="qcurve" smooth="yes"/>
			<point x="1023.32" y="-19.56"/>
			<point x="827.35" y="30.9"/>
			<point x="782.31" y="56.22" type="qcurve"/>
			<point x="726.53" y="5.16" type="line"/>
			<point x="679.5" y="5.16" type="line"/>
			<point x="679.5" y="337.36" type="line"/>
			<point x="739.4" y="337.36" type="line"/>
			<point x="793.74" y="190.38" type="line" smooth="yes"/>
			<point x="824.06" y="117.69"/>
			<point x="982.28" y="35.72"/>
			<point x="1091.12" y="35.72" type="qcurve" smooth="yes"/>
			<point x="1191.67" y="35.72"/>
			<point x="1280.15" y="93.17"/>
			<point x="1280.15" y="147.02" type="qcurve" smooth="yes"/>
			<point x="1280.15" y="200.32"/>
			<point x="1148.15" y="277.18"/>
			<point x="1010.41" y="335.2" type="qcurve" smooth="yes"/>
			<point x="842.11" y="415.43"/>
			<point x="703.65" y="571.95"/>
			<point x="703.65" y="698.68" type="qcurve" smooth="yes"/>
			<point x="703.65" y="774.63"/>
			<point x="779" y="899.93"/>
			<point x="847.44" y="953.37" type="qcurve" smooth="yes"/>
			<point x="914.03" y="1012.29"/>
			<point x="968.43" y="1151.1"/>
			<point x="966.71" y="1253.99" type="qcurve" smooth="yes"/>
			<point x="964.99" y="1355.1"/>
			<point x="878.1737096774" y="1442.43"/>
			<point x="794.6037096774" y="1443" type="qcurve" smooth="yes"/>
			<point x="718.4837096774" y="1443.57"/>
			<point x="637.81" y="1331.2"/>
			<point x="636.38" y="1089" type="qcurve" smooth="yes"/>
			<point x="632.66" y="477" type="line"/>
			<point x="634.51" y="20.8608064516" type="line"/>
			<point x="603.78" y="-5.1391935484" type="line"/>
			<point x="59.87" y="0" type="line"/>
			<point x="59.87" y="57.02" type="line"/>
			<point x="165.88" y="92.02" type="line"/>
			<point x="175.88" y="477" type="line"/>
			<point x="174.74" y="1015" type="line" smooth="yes"/>
			<point x="174.17" y="1292.86"/>
			<point x="429.8237096774" y="1535"/>
			<point x="746.3237096774" y="1535" type="qcurve" smooth="yes"/>
			<point x="1001.0849193548" y="1535"/>
			<point x="1274.54" y="1378.8"/>
		</contour>
	</outline>
</glyph>
<glyph name="thorn" format="2">
	<unicode hex="00FE"/>
	<advance width="1416"/>
	<outline>
		<contour>
			<point x="21" y="-460" type="line"/>
			<point x="21" y="-400" type="line"/>
			<point x="136" y="-365" type="line"/>
			<point x="138" y="389" type="line"/>
			<point x="133" y="1397" type="line"/>
			<point x="-1" y="1434" type="line"/>
			<point x="-1" y="1500" type="line"/>
			<point x="532" y="1512" type="line"/>
			<point x="558" y="1511" type="line"/>
			<point x="607" y="1466" type="line"/>
			<point x="604" y="850" type="line"/>
			<point x="639" y="912"/>
			<point x="803" y="994"/>
			<point x="930" y="994" type="qcurve" smooth="yes"/>
			<point x="1099" y="994"/>
			<point x="1378" y="762"/>
			<point x="1378" y="514" type="qcurve" smooth="yes"/>
			<point x="1378" y="265"/>
			<point x="1089" y="0"/>
			<point x="876" y="0" type="qcurve" smooth="yes"/>
			<point x="774" y="0"/>
			<point x="643" y="45"/>
			<point x="607" y="78" type="qcurve"/>
			<point x="609" y="-365" type="line"/>
			<point x="762" y="-400" type="line"/>
			<point x="762" y="-460" type="line"/>
		</contour>
		<contour>
			<point x="607" y="188" type="line"/>
			<point x="623" y="148"/>
			<point x="697" y="102"/>
			<point x="735" y="102" type="qcurve" smooth="yes"/>
			<point x="795" y="102"/>
			<point x="880" y="236"/>
			<point x="880" y="487" type="qcurve" smooth="yes"/>
			<point x="880" y="720"/>
			<point x="811" y="837"/>
			<point x="738" y="837" type="qcurve" smooth="yes"/>
			<point x="690" y="837"/>
			<point x="618" y="772"/>
			<point x="605" y="737" type="qcurve"/>
			<point x="604" y="412" type="line"/>
		</contour>
	</outline>
</glyph>
<glyph name="OE" format="2">
	<unicode hex="0152"/>
	<advance width="2120"/>
	<outline>
		<contour>
			<point x="50" y="747" type="qcurve" smooth="yes"/>
			<point x="50" y="1106"/>
			<point x="462" y="1522"/>
			<point x="785" y="1522" type="qcurve" smooth="yes"/>
			<point x="886" y="1522"/>
			<point x="920" y="1513"/>
			<point x="975" y="1500" type="qcurve" smooth="yes"/>
			<point x="2031" y="1500" type="line"/>
			<point x="2031" y="1167" type="line"/>
			<point x="1957" y="1167" type="line"/>
			<point x="1848" y="1430" type="line"/>
			<point x="1615" y="1430" type="line"/>
			<point x="1545" y="1408" type="line"/>
			<point x="1543" y="784" type="line"/>
			<point x="1545" y="106" type="line"/>
			<point x="1614" y="78" type="line"/>
			<point x="1891" y="78" type="line"/>
			<point x="2036" y="373" type="line"/>
			<point x="2108" y="373" type="line"/>
			<point x="2071" y="0" type="line"/>
			<point x="1061" y="0" type="line" smooth="yes"/>
			<point x="935" y="-12"/>
			<point x="821" y="-19"/>
			<point x="779" y="-19" type="qcurve" smooth="yes"/>
			<point x="451" y="-19"/>
			<point x="50" y="395"/>
		</contour>
		<contour>
			<point x="582" y="778" type="qcurve" smooth="yes"/>
			<point x="582" y="352"/>
			<point x="715" y="54"/>
			<point x="857" y="54" type="qcurve" smooth="yes"/>
			<point x="932" y="54"/>
			<point x="1039" y="96"/>
			<point x="1060" y="143" type="qcurve"/>
			<point x="1060" y="723" type="line"/>
			<point x="1048" y="1339" type="line"/>
			<point x="1009" y="1403"/>
			<point x="906" y="1450"/>
			<point x="811" y="1450" type="qcurve" smooth="yes"/>
			<point x="709" y="1450"/>
			<point x="582" y="1178"/>
		</contour>
		<contour>
			<point x="1306" y="751" type="line"/>
			<point x="1306" y="821" type="line"/>
			<point x="1829" y="828" type="line"/>
			<point x="1891" y="988" type="line"/>
			<point x="1951" y="988" type="line"/>
			<point x="1951" y="577" type="line"/>
			<point x="1891" y="577" type="line"/>
			<point x="1829" y="744" type="line"/>
		</contour>
	</outline>
</glyph>
<glyph name="Schwa" format="2">
	<unicode hex="018F"/>
	<advance width="1527"/>
	<outline>
		<contour>
			<point x="113.02" y="1270.08" type="line"/>
			<point x="186.77" y="1359.17"/>
			<point x="493.33" y="1517.86"/>
			<point x="700.27" y="1517.86" type="qcurve" smooth="yes"/>
			<point x="1024.24" y="1517.86"/>
			<point x="1479.51" y="1142.23"/>
			<point x="1479.51" y="730.05" type="qcurve" smooth="yes"/>
			<point x="1479.51" y="347.11"/>
			<point x="1109.2" y="-19.01"/>
			<point x="731.24" y="-19.01" type="qcurve" smooth="yes"/>
			<point x="415.78" y="-19.01"/>
			<point x="53.91" y="317.48"/>
			<point x="45.91" y="657.5" type="qcurve" smooth="yes"/>
			<point x="45.48" y="676" type="line"/>
			<point x="1219.05" y="676" type="line"/>
			<point x="1219.05" y="619" type="line"/>
			<point x="810.97" y="619" type="line"/>
			<point x="427" y="619" type="line"/>
			<point x="427" y="603" type="line" smooth="yes"/>
			<point x="427" y="239"/>
			<point x="566" y="56"/>
			<point x="701" y="56" type="qcurve" smooth="yes"/>
			<point x="836" y="56"/>
			<point x="956" y="200"/>
			<point x="956.64" y="692.57" type="qcurve" smooth="yes"/>
			<point x="957" y="1183"/>
			<point x="775" y="1411"/>
			<point x="631" y="1411" type="qcurve" smooth="yes"/>
			<point x="463" y="1411"/>
			<point x="226.08" y="1292.87"/>
			<point x="156.57" y="1222.02" type="qcurve"/>
		</contour>
	</outline>
</glyph>
<glyph name="schwa" format="2">
	<unicode hex="0259"/>
	<advance width="1215"/>
	<outline>
		<contour>
			<point x="1181.46" y="487.55" type="qcurve" smooth="yes"/>
			<point x="1181.46" y="224.27"/>
			<point x="836.69" y="-20.18"/>
			<point x="574.78" y="-20.18" type="qcurve" smooth="yes"/>
			<point x="328.51" y="-20.18"/>
			<point x="14.7" y="218.41"/>
			<point x="5.97" y="423.55" type="qcurve"/>
			<point x="5.54" y="489.55" type="line"/>
			<point x="782.05" y="489.55" type="line"/>
			<point x="782.05" y="424.55" type="line"/>
			<point x="404.31" y="424.55" type="line"/>
			<point x="404.74" y="182.03"/>
			<point x="481.22" y="48.39"/>
			<point x="549.36" y="48.39" type="qcurve" smooth="yes"/>
			<point x="605.19" y="48.39"/>
			<point x="706.16" y="144.36"/>
			<point x="706.16" y="453.55" type="qcurve" smooth="yes"/>
			<point x="705.73" y="732.55"/>
			<point x="580.72" y="875.02"/>
			<point x="459.58" y="875.02" type="qcurve" smooth="yes"/>
			<point x="328.73" y="875.02"/>
			<point x="125.63" y="752.4"/>
			<point x="65.98" y="662.13" type="qcurve"/>
			<point x="22.28" y="711.49" type="line"/>
			<point x="70.19" y="828.01"/>
			<point x="372.7" y="998.73"/>
			<point x="556.89" y="998.73" type="qcurve" smooth="yes"/>
			<point x="834.68" y="998.73"/>
			<point x="1181.46" y="735.55"/>
		</contour>
	</outline>
</glyph>
<glyph name="doubleprimemod" format="2">
	<unicode hex="02BA"/>
	<advance width="1096"/>
	<outline>
		<contour>
			<point x="213.5" y="1502" type="line"/>
			<point x="522.8" y="1502" type="line"/>
			<point x="301.8" y="827" type="line"/>
			<point x="209.5" y="832" type="line"/>
		</contour>
		<contour>
			<point x="648.01" y="1502" type="line"/>
			<point x="957.31" y="1502" type="line"/>
			<point x="736.31" y="827" type="line"/>
			<point x="644.01" y="832" type="line"/>
		</contour>
	</outline>
</glyph>
<glyph name="ring" format="2">
	<unicode hex="02DA"/>
	<advance width="896"/>
	<outline>
		<contour>
			<point x="202.74" y="1308.76" type="qcurve" smooth="yes"/>
			<point x="202.74" y="1410.94"/>
			<point x="342.81" y="1544.85"/>
			<point x="448" y="1544.85" type="qcurve" smooth="yes"/>
			<point x="553.19" y="1544.85"/>
			<point x="693.26" y="1410.94"/>
			<point x="693.26" y="1308.76" type="qcurve" smooth="yes"/>
			<point x="693.26" y="1207.15"/>
			<point x="553.19" y="1073.24"/>
			<point x="448" y="1073.24" type="qcurve" smooth="yes"/>
			<point x="342.81" y="1073.24"/>
			<point x="202.74" y="1207.15"/>
		</contour>
		<contour>
			<point x="354.91" y="1306.61" type="qcurve" smooth="yes"/>
			<point x="354.91" y="1263.14"/>
			<point x="407.68" y="1211.66"/>
			<point x="450.58" y="1211.66" type="qcurve" smooth="yes"/>
			<point x="495.48" y="1211.66"/>
			<point x="546.25" y="1259.28"/>
			<point x="546.25" y="1306.61" type="qcurve" smooth="yes"/>
			<point x="546.25" y="1349.65"/>
			<point x="493.48" y="1402.13"/>
			<point x="450.58" y="1402.13" type="qcurve" smooth="yes"/>
			<point x="405.68" y="1402.13"/>
			<point x="354.91" y="1354.51"/>
		</contour>
	</outline>
</glyph>
<glyph name="ogonek" format="2">
	<unicode hex="02DB"/>
	<advance width="896"/>
	<outline>
		<contour>
			<point x="433.64" y="-208.2" type="qcurve" smooth="yes"/>
			<point x="433.64" y="-268.93"/>
			<point x="512.48" y="-317.1"/>
			<point x="575.35" y="-317.1" type="qcurve" smooth="yes"/>
			<point x="641.38" y="-317.1"/>
			<point x="723.31" y="-282.23"/>
			<point x="773.79" y="-241.92" type="qcurve"/>
			<point x="807.09" y="-273.94" type="line"/>
			<point x="760.5" y="-337.95"/>
			<point x="570.43" y="-425.11"/>
			<point x="484.5" y="-425.11" type="qcurve" smooth="yes"/>
			<point x="372.43" y="-425.11"/>
			<point x="239.81" y="-319.79"/>
			<point x="239.81" y="-238.47" type="qcurve" smooth="yes"/>
			<point x="239.81" y="-150.04"/>
			<point x="404.13" y="-20.6"/>
			<point x="487.31" y="17.42" type="qcurve" smooth="yes"/>
			<point x="522.18" y="34" type="line"/>
			<point x="549.05" y="4.16" type="line"/>
			<point x="534.91" y="-9.13" type="line" smooth="yes"/>
			<point x="472.64" y="-66.43"/>
			<point x="433.64" y="-159.78"/>
		</contour>
	</outline>
</glyph>
<glyph name="dotbelowcomb" format="2">
	<unicode hex="0323"/>
	<advance width="896"/>
	<outline>
		<contour>
			<point x="300.14" y="-221.6" type="qcurve" smooth="yes"/>
			<point x="300.14" y="-152.45"/>
			<point x="380.42" y="-73.03"/>
			<point x="448.43" y="-73.03" type="qcurve" smooth="yes"/>
			<point x="513.44" y="-73.03"/>
			<point x="596.72" y="-158.45"/>
			<point x="596.72" y="-221.6" type="qcurve" smooth="yes"/>
			<point x="596.72" y="-288.61"/>
			<point x="518.3" y="-369.03"/>
			<point x="448.43" y="-369.03" type="qcurve" smooth="yes"/>
			<point x="383.42" y="-369.03"/>
			<point x="300.14" y="-285.75"/>
		</contour>
	</outline>
</glyph>
<glyph name="lownumeralsign" format="2">
  <advance width="495"/>
  <unicode hex="0375"/>
  <outline>
    <contour>
      <point x="377" y="-243" type="line"/>
      <point x="102" y="-206" type="line"/>
      <point x="52" y="-169" type="line"/>
      <point x="402" y="363" type="line"/>
      <point x="444" y="348" type="line"/>
    </contour>
  </outline>
</glyph>
<glyph name="Xi" format="2">
  <advance width="1386"/>
  <unicode hex="039E"/>
  <outline>
    <contour>
      <point x="54" y="0" type="line"/>
      <point x="26" y="540" type="line"/>
      <point x="97" y="540" type="line"/>
      <point x="193" y="289" type="line"/>
      <point x="686" y="285" type="line"/>
      <point x="1201" y="289" type="line"/>
      <point x="1289" y="540" type="line"/>
      <point x="1360" y="540" type="line"/>
      <point x="1333" y="0" type="line"/>
    </contour>
    <contour>
      <point x="341" y="527" type="line"/>
      <point x="341" y="978" type="line"/>
      <point x="411" y="978" type="line"/>
      <point x="482" y="804" type="line"/>
      <point x="688" y="791" type="line"/>
      <point x="893" y="804" type="line"/>
      <point x="965" y="978" type="line"/>
      <point x="1034" y="978" type="line"/>
      <point x="1034" y="527" type="line"/>
      <point x="965" y="527" type="line"/>
      <point x="893" y="708" type="line"/>
      <point x="688" y="722" type="line"/>
      <point x="482" y="708" type="line"/>
      <point x="411" y="527" type="line"/>
    </contour>
    <contour>
      <point x="74" y="1015" type="line"/>
      <point x="74" y="1500" type="line"/>
      <point x="1313" y="1500" type="line"/>
      <point x="1313" y="1015" type="line"/>
      <point x="1248" y="1015" type="line"/>
      <point x="1190" y="1216" type="line"/>
      <point x="685" y="1219" type="line"/>
      <point x="197" y="1216" type="line"/>
      <point x="139" y="1015" type="line"/>
    </contour>
  </outline>
</glyph>
<glyph name="alpha" format="2">
  <advance width="1521"/>
  <unicode hex="03B1"/>
  <anchor x="603" y="970" name="GRKtop"/>
  <outline>
    <contour>
      <point x="573" y="-25" type="qcurve"/>
      <point x="333" y="-25"/>
      <point x="36" y="241"/>
      <point x="36" y="473" type="qcurve" smooth="yes"/>
      <point x="36" y="706"/>
      <point x="323" y="996"/>
      <point x="571" y="996" type="qcurve" smooth="yes"/>
      <point x="783" y="996"/>
      <point x="1017" y="806"/>
      <point x="1069" y="541" type="qcurve"/>
      <point x="1229" y="541" type="line"/>
      <point x="1320" y="231"/>
      <point x="1369" y="111"/>
      <point x="1436" y="108" type="qcurve" smooth="yes"/>
      <point x="1517" y="106" type="line"/>
      <point x="1517" y="32" type="line"/>
      <point x="1190" y="-13" type="line"/>
      <point x="1063" y="-10"/>
      <point x="956" y="122"/>
      <point x="880" y="425" type="qcurve"/>
      <point x="854" y="425" type="line"/>
      <point x="776" y="796"/>
      <point x="698" y="926"/>
      <point x="635" y="926" type="qcurve" smooth="yes"/>
      <point x="570" y="926"/>
      <point x="502" y="802"/>
      <point x="502" y="479" type="qcurve"/>
      <point x="502" y="184"/>
      <point x="568" y="34"/>
      <point x="637" y="34" type="qcurve"/>
      <point x="706" y="34"/>
      <point x="798" y="263"/>
      <point x="884" y="614" type="qcurve"/>
      <point x="984" y="614" type="line"/>
      <point x="1094" y="954" type="line"/>
      <point x="1437" y="985" type="line"/>
      <point x="1500" y="940" type="line"/>
      <point x="1211" y="383" type="line"/>
      <point x="1035" y="383" type="line"/>
      <point x="973" y="188"/>
      <point x="728" y="-25"/>
    </contour>
  </outline>
</glyph>
<glyph name="gamma" format="2">
  <advance width="1233"/>
  <unicode hex="03B3"/>
  <outline>
    <contour>
      <point x="418" y="-440" type="line"/>
      <point x="352" y="-395" type="line"/>
      <point x="399" y="144" type="line"/>
      <point x="767" y="144" type="line"/>
      <point x="868" y="590" type="line"/>
      <point x="936" y="967" type="line"/>
      <point x="1168" y="985" type="line"/>
      <point x="1235" y="940" type="line"/>
      <point x="1049" y="547" type="line"/>
      <point x="796" y="-73" type="line"/>
      <point x="415" y="-75" type="line"/>
      <point x="233" y="433" type="line"/>
      <point x="114" y="751" type="line" smooth="yes"/>
      <point x="87" y="826"/>
      <point x="58" y="869"/>
      <point x="5" y="879" type="qcurve" smooth="yes"/>
      <point x="-18" y="886" type="line"/>
      <point x="-18" y="944" type="line"/>
      <point x="405" y="986" type="line"/>
      <point x="507" y="979"/>
      <point x="591" y="909"/>
      <point x="609" y="843" type="qcurve" smooth="yes"/>
      <point x="683" y="564" type="line"/>
      <point x="793" y="191" type="line"/>
      <point x="814" y="191" type="line"/>
      <point x="870" y="-405" type="line"/>
    </contour>
  </outline>
</glyph>
<glyph name="delta" format="2">
  <advance width="1470"/>
  <unicode hex="03B4"/>
  <outline>
    <contour>
      <point x="703" y="-19.0" type="qcurve" smooth="yes"/>
      <point x="378" y="-19.0"/>
      <point x="42" y="226.0"/>
      <point x="38" y="439.0" type="qcurve" smooth="yes"/>
      <point x="36.0" y="637.0"/>
      <point x="367" y="912.0"/>
      <point x="768" y="936.0" type="qcurve"/>
      <point x="867" y="936.0" type="line"/>
      <point x="867" y="839.0" type="line"/>
      <point x="702" y="844.0"/>
      <point x="537" y="659.0"/>
      <point x="537" y="397.0" type="qcurve" smooth="yes"/>
      <point x="537" y="191.0"/>
      <point x="624" y="44.0"/>
      <point x="700" y="43.0" type="qcurve"/>
      <point x="788" y="42.0"/>
      <point x="879" y="198.0"/>
      <point x="879" y="409.0" type="qcurve" smooth="yes"/>
      <point x="879" y="541.0"/>
      <point x="763" y="763.0"/>
      <point x="556" y="863.0" type="qcurve" smooth="yes"/>
      <point x="376" y="950.0"/>
      <point x="227" y="1100.0"/>
      <point x="227" y="1202.0" type="qcurve" smooth="yes"/>
      <point x="227" y="1355.0"/>
      <point x="511" y="1527.0"/>
      <point x="780" y="1527.0" type="qcurve" smooth="yes"/>
      <point x="950" y="1527.0"/>
      <point x="1206" y="1475.0"/>
      <point x="1255" y="1442.0" type="qcurve"/>
      <point x="1235" y="1110.0" type="line"/>
      <point x="1170" y="1110.0" type="line"/>
      <point x="1118" y="1330.0" type="line"/>
      <point x="1092" y="1362.0"/>
      <point x="949" y="1408.0"/>
      <point x="856" y="1408.0" type="qcurve"/>
      <point x="749" y="1408.0"/>
      <point x="640" y="1346.0"/>
      <point x="640" y="1291.0" type="qcurve"/>
      <point x="640" y="1252.0"/>
      <point x="712" y="1179.0"/>
      <point x="827" y="1122.0" type="qcurve" smooth="yes"/>
      <point x="1143" y="965.0"/>
      <point x="1384" y="683.0"/>
      <point x="1384" y="514.0" type="qcurve" smooth="yes"/>
      <point x="1384" y="264.0"/>
      <point x="1000" y="-19.0"/>
    </contour>
  </outline>
</glyph>
<glyph name="lambda" format="2">
  <advance width="1297"/>
  <unicode hex="03BB"/>
  <outline>
    <contour>
      <point x="931" y="-4" type="line"/>
      <point x="846" y="-6"/>
      <point x="732" y="44"/>
      <point x="702" y="130" type="qcurve" smooth="yes"/>
      <point x="488" y="818" type="line"/>
      <point x="283" y="1246" type="line" smooth="yes"/>
      <point x="255" y="1307"/>
      <point x="204" y="1375"/>
      <point x="149" y="1390" type="qcurve" smooth="yes"/>
      <point x="46" y="1415" type="line"/>
      <point x="46" y="1473" type="line"/>
      <point x="489" y="1515" type="line"/>
      <point x="562" y="1515"/>
      <point x="654" y="1462"/>
      <point x="675" y="1407" type="qcurve" smooth="yes"/>
      <point x="842" y="964" type="line"/>
      <point x="1123" y="258" type="line" smooth="yes"/>
      <point x="1147" y="197"/>
      <point x="1200" y="137"/>
      <point x="1255" y="117" type="qcurve" smooth="yes"/>
      <point x="1330" y="99" type="line"/>
      <point x="1330" y="39" type="line"/>
    </contour>
    <contour>
      <point x="35" y="0" type="line"/>
      <point x="-28" y="45" type="line"/>
      <point x="206" y="453" type="line"/>
      <point x="519" y="1058" type="line"/>
      <point x="557" y="958" type="line"/>
      <point x="460" y="405" type="line"/>
      <point x="414" y="31" type="line"/>
    </contour>
  </outline>
</glyph>
<glyph name="pi" format="2">
  <advance width="1483"/>
  <unicode hex="03C0"/>
  <outline>
    <contour>
      <point x="1462" y="706" type="line"/>
      <point x="-37" y="721" type="line"/>
      <point x="-37" y="777" type="line"/>
      <point x="250" y="948" type="line"/>
      <point x="1426" y="985" type="line"/>
      <point x="1492" y="940" type="line"/>
    </contour>
    <contour>
      <point x="173" y="0" type="line"/>
      <point x="107" y="45" type="line"/>
      <point x="206" y="502" type="line"/>
      <point x="275" y="846" type="line"/>
      <point x="588" y="846" type="line"/>
      <point x="591" y="491" type="line"/>
      <point x="595" y="32" type="line"/>
    </contour>
    <contour>
      <point x="1062" y="-13" type="line"/>
      <point x="924" y="-9"/>
      <point x="801" y="112"/>
      <point x="813" y="228" type="qcurve" smooth="yes"/>
      <point x="879" y="852" type="line"/>
      <point x="1199" y="855" type="line"/>
      <point x="1238" y="228" type="line" smooth="yes"/>
      <point x="1241" y="165"/>
      <point x="1290" y="109"/>
      <point x="1346" y="107" type="qcurve" smooth="yes"/>
      <point x="1419" y="106" type="line"/>
      <point x="1419" y="32" type="line"/>
    </contour>
  </outline>
</glyph>
<glyph name="psi" format="2">
  <advance width="1955"/>
  <unicode hex="03C8"/>
  <outline>
    <contour>
      <point x="860" y="-19" type="line"/>
      <point x="473" y="-19"/>
      <point x="114" y="198"/>
      <point x="108" y="449" type="qcurve" smooth="yes"/>
      <point x="100" y="790" type="line" smooth="yes"/>
      <point x="99" y="823"/>
      <point x="88" y="849"/>
      <point x="69" y="856" type="qcurve" smooth="yes"/>
      <point x="8" y="878" type="line"/>
      <point x="7" y="935" type="line"/>
      <point x="431" y="973" type="line"/>
      <point x="502" y="971"/>
      <point x="572" y="909"/>
      <point x="572" y="813" type="qcurve" smooth="yes"/>
      <point x="574" y="454" type="line" smooth="yes"/>
      <point x="576" y="228"/>
      <point x="736" y="106"/>
      <point x="860" y="106" type="qcurve"/>
    </contour>
    <contour>
      <point x="1073" y="-19" type="qcurve"/>
      <point x="1073" y="102" type="line"/>
      <point x="1261" y="102"/>
      <point x="1418" y="261"/>
      <point x="1418" y="467" type="qcurve" smooth="yes"/>
      <point x="1418" y="586"/>
      <point x="1367" y="829"/>
      <point x="1336" y="878" type="qcurve"/>
      <point x="1597" y="994" type="line"/>
      <point x="1751" y="915"/>
      <point x="1910" y="678"/>
      <point x="1909" y="516" type="qcurve"/>
      <point x="1908" y="266"/>
      <point x="1472" y="-19"/>
    </contour>
    <contour>
      <point x="792" y="-460" type="line"/>
      <point x="727" y="-415" type="line"/>
      <point x="738" y="51" type="line"/>
      <point x="749" y="56" type="line"/>
      <point x="789" y="1482" type="line"/>
      <point x="1095" y="1512" type="line"/>
      <point x="1161" y="1467" type="line"/>
      <point x="1203" y="60" type="line"/>
      <point x="1214" y="55" type="line"/>
      <point x="1227" y="-425" type="line"/>
    </contour>
  </outline>
</glyph>
<glyph name="omega" format="2">
  <advance width="1896"/>
  <unicode hex="03C9"/>
  <anchor x="938" y="970" name="GRKtop"/>
  <outline>
    <contour>
      <point x="603" y="-18" type="qcurve" smooth="yes"/>
      <point x="357" y="-18"/>
      <point x="46" y="224"/>
      <point x="46" y="464" type="qcurve"/>
      <point x="46" y="663"/>
      <point x="255" y="932"/>
      <point x="448" y="989" type="qcurve"/>
      <point x="662" y="902" type="line"/>
      <point x="612" y="831"/>
      <point x="538" y="567"/>
      <point x="538" y="397" type="qcurve"/>
      <point x="538" y="239"/>
      <point x="630" y="67"/>
      <point x="718" y="67" type="qcurve" smooth="yes"/>
      <point x="812" y="67"/>
      <point x="922" y="279"/>
      <point x="935" y="483" type="qcurve"/>
      <point x="970" y="483" type="line"/>
      <point x="986" y="270"/>
      <point x="1093" y="67"/>
      <point x="1202" y="67" type="qcurve"/>
      <point x="1271" y="67"/>
      <point x="1366" y="221"/>
      <point x="1366" y="405" type="qcurve"/>
      <point x="1366" y="560"/>
      <point x="1291" y="798"/>
      <point x="1243" y="861" type="qcurve"/>
      <point x="1510" y="995" type="line"/>
      <point x="1692" y="921"/>
      <point x="1850" y="668"/>
      <point x="1850" y="503" type="qcurve"/>
      <point x="1850" y="267"/>
      <point x="1563" y="-18"/>
      <point x="1316" y="-18" type="qcurve" smooth="yes"/>
      <point x="1075" y="-18"/>
      <point x="758" y="280"/>
      <point x="755" y="572" type="qcurve" smooth="yes"/>
      <point x="755" y="664" type="line"/>
      <point x="1081" y="690" type="line"/>
      <point x="1148" y="646" type="line"/>
      <point x="1146" y="555" type="line" smooth="yes"/>
      <point x="1144" y="288"/>
      <point x="828" y="-18"/>
    </contour>
  </outline>
</glyph>
<glyph name="kaisymbol" format="2">
  <advance width="1449"/>
  <unicode hex="03D7"/>
  <outline>
    <contour>
      <point x="136" y="0" type="line"/>
      <point x="139" y="318" type="line"/>
      <point x="134" y="950" type="line"/>
      <point x="541" y="985" type="line"/>
      <point x="604" y="940" type="line"/>
      <point x="595" y="279" type="line"/>
      <point x="589" y="0" type="line"/>
    </contour>
    <contour>
      <point x="500" y="185" type="line"/>
      <point x="500" y="276" type="line"/>
      <point x="938" y="789" type="line" smooth="yes"/>
      <point x="1052" y="924"/>
      <point x="1176" y="986"/>
      <point x="1272" y="985" type="qcurve"/>
      <point x="1335" y="940" type="line"/>
      <point x="1304" y="735" type="line"/>
      <point x="1084" y="735"/>
      <point x="955" y="683"/>
      <point x="871" y="597" type="qcurve" smooth="yes"/>
    </contour>
    <contour>
      <point x="731" y="-517" type="qcurve" smooth="yes"/>
      <point x="476" y="-517"/>
      <point x="80" y="-333"/>
      <point x="-44" y="-172" type="qcurve"/>
      <point x="21" y="-106" type="line"/>
      <point x="146" y="-222"/>
      <point x="483" y="-345"/>
      <point x="673" y="-344" type="qcurve" smooth="yes"/>
      <point x="892" y="-344"/>
      <point x="1040" y="-231" type="qcurve" smooth="yes"/>
      <point x="1151" y="-147"/>
      <point x="1190" y="2" type="qcurve"/>
      <point x="1078" y="-13" type="line"/>
      <point x="964" y="-14"/>
      <point x="836" y="34"/>
      <point x="797" y="130" type="qcurve" smooth="yes"/>
      <point x="671" y="413" type="line"/>
      <point x="955" y="731" type="line"/>
      <point x="1252" y="203" type="line" smooth="yes"/>
      <point x="1274" y="165"/>
      <point x="1322" y="106"/>
      <point x="1363" y="106" type="qcurve" smooth="yes"/>
      <point x="1498" y="106" type="line"/>
      <point x="1474" y="-184"/>
      <point x="1061" y="-517"/>
    </contour>
  </outline>
</glyph>
<glyph name="Dje" format="2">
  <advance width="1791"/>
  <unicode hex="0402"/>
  <outline>
    <contour>
      <point x="1058" y="776" type="qcurve" smooth="yes"/>
      <point x="966" y="776"/>
      <point x="781" y="734"/>
      <point x="663" y="676" type="qcurve"/>
      <point x="663" y="742" type="line"/>
      <point x="779" y="800"/>
      <point x="1032" y="855"/>
      <point x="1206" y="855" type="qcurve" smooth="yes"/>
      <point x="1469" y="855"/>
      <point x="1771" y="669"/>
      <point x="1771" y="436" type="qcurve" smooth="yes"/>
      <point x="1771" y="227"/>
      <point x="1446" y="0"/>
      <point x="1110" y="0" type="qcurve"/>
      <point x="1110" y="64" type="line"/>
      <point x="1202" y="78"/>
      <point x="1292" y="250"/>
      <point x="1292" y="427" type="qcurve" smooth="yes"/>
      <point x="1292" y="622"/>
      <point x="1181" y="776"/>
    </contour>
    <contour>
      <point x="10" y="1169" type="line"/>
      <point x="10" y="1500" type="line"/>
      <point x="1343" y="1500" type="line"/>
      <point x="1343" y="1169" type="line"/>
      <point x="1280" y="1169" type="line"/>
      <point x="1167" y="1431" type="line"/>
      <point x="909" y="1431" type="line"/>
      <point x="895" y="1423" type="line"/>
      <point x="898" y="754" type="line"/>
      <point x="899" y="90" type="line"/>
      <point x="1012" y="55" type="line"/>
      <point x="1012" y="0" type="line"/>
      <point x="267" y="0" type="line"/>
      <point x="267" y="55" type="line"/>
      <point x="410" y="90" type="line"/>
      <point x="412" y="754" type="line"/>
      <point x="417" y="1423" type="line"/>
      <point x="401" y="1431" type="line"/>
      <point x="175" y="1431" type="line"/>
      <point x="72" y="1169" type="line"/>
    </contour>
  </outline>
</glyph>
<glyph name="Ieukran" format="2">
  <advance width="1361"/>
  <unicode hex="0404"/>
  <outline>
    <contour>
      <point x="49" y="732" type="qcurve" smooth="yes"/>
      <point x="49" y="1114"/>
      <point x="489" y="1527"/>
      <point x="793" y="1527" type="qcurve" smooth="yes"/>
      <point x="935" y="1527"/>
      <point x="1120" y="1462"/>
      <point x="1179" y="1416" type="qcurve"/>
      <point x="1216" y="1489" type="line"/>
      <point x="1293" y="1489" type="line"/>
      <point x="1293" y="1010" type="line"/>
      <point x="1211" y="1010" type="line"/>
      <point x="1172" y="1183" type="line" smooth="yes"/>
      <point x="1139" y="1330"/>
      <point x="976" y="1466"/>
      <point x="841" y="1466" type="qcurve" smooth="yes"/>
      <point x="710" y="1466"/>
      <point x="588" y="1178"/>
      <point x="588" y="744" type="qcurve" smooth="yes"/>
      <point x="588" y="347"/>
      <point x="772" y="76"/>
      <point x="940" y="76" type="qcurve" smooth="yes"/>
      <point x="1070" y="76"/>
      <point x="1256" y="194"/>
      <point x="1321" y="286" type="qcurve"/>
      <point x="1363" y="245" type="line"/>
      <point x="1294" y="131"/>
      <point x="1012" y="-23"/>
      <point x="762" y="-23" type="qcurve" smooth="yes"/>
      <point x="475" y="-23"/>
      <point x="49" y="369"/>
    </contour>
    <contour>
      <point x="281" y="748" type="line"/>
      <point x="281" y="796" type="line"/>
      <point x="882" y="803" type="line"/>
      <point x="954" y="968" type="line"/>
      <point x="1014" y="968" type="line"/>
      <point x="1014" y="567" type="line"/>
      <point x="954" y="567" type="line"/>
      <point x="882" y="741" type="line"/>
    </contour>
  </outline>
</glyph>
<glyph name="Lje" format="2">
  <advance width="2080"/>
  <unicode hex="0409"/>
  <outline>
    <contour>
      <point x="1584" y="424" type="qcurve" smooth="yes"/>
      <point x="1584" y="617"/>
      <point x="1502" y="811"/>
      <point x="1394" y="811" type="qcurve" smooth="yes"/>
      <point x="1280" y="811" type="line"/>
      <point x="1274" y="800" type="line"/>
      <point x="1277" y="97" type="line"/>
      <point x="1299" y="78" type="line"/>
      <point x="1358" y="78" type="line" smooth="yes"/>
      <point x="1502" y="78"/>
      <point x="1584" y="256"/>
    </contour>
    <contour>
      <point x="1281" y="1407" type="line"/>
      <point x="1275" y="895" type="line"/>
      <point x="1279" y="886" type="line"/>
      <point x="1516" y="886" type="line" smooth="yes"/>
      <point x="1778" y="886"/>
      <point x="2065" y="680"/>
      <point x="2064" y="438" type="qcurve" smooth="yes"/>
      <point x="2063" y="205"/>
      <point x="1818" y="0"/>
      <point x="1539" y="0" type="qcurve" smooth="yes"/>
      <point x="658" y="0" type="line"/>
      <point x="658" y="55" type="line"/>
      <point x="793" y="90" type="line"/>
      <point x="795" y="793" type="line"/>
      <point x="793" y="1411" type="line"/>
      <point x="752" y="1430" type="line"/>
      <point x="500" y="1430" type="line"/>
      <point x="459" y="1411" type="line"/>
      <point x="448" y="827" type="line" smooth="yes"/>
      <point x="439" y="340"/>
      <point x="316" y="-25"/>
      <point x="143" y="-25" type="qcurve" smooth="yes"/>
      <point x="100" y="-25"/>
      <point x="40" y="-12"/>
      <point x="20" y="0" type="qcurve"/>
      <point x="20" y="368" type="line"/>
      <point x="44" y="360"/>
      <point x="81" y="355"/>
      <point x="105" y="355" type="qcurve" smooth="yes"/>
      <point x="227" y="355"/>
      <point x="338" y="602"/>
      <point x="342" y="852" type="qcurve" smooth="yes"/>
      <point x="352" y="1407" type="line"/>
      <point x="210" y="1444" type="line"/>
      <point x="210" y="1500" type="line"/>
      <point x="1434" y="1500" type="line"/>
      <point x="1434" y="1441" type="line"/>
    </contour>
  </outline>
</glyph>
<glyph name="Ef" format="2">
  <advance width="2067"/>
  <unicode hex="0424"/>
  <outline>
    <contour>
      <point x="2022" y="756" type="qcurve" smooth="yes"/>
      <point x="2022" y="503"/>
      <point x="1616" y="221"/>
      <point x="1200" y="212" type="qcurve"/>
      <point x="1200" y="271" type="line"/>
      <point x="1348" y="273"/>
      <point x="1499" y="470"/>
      <point x="1499" y="767" type="qcurve" smooth="yes"/>
      <point x="1499" y="1036"/>
      <point x="1335" y="1236"/>
      <point x="1200" y="1236" type="qcurve"/>
      <point x="1200" y="1298" type="line"/>
      <point x="1591" y="1298"/>
      <point x="2022" y="1023"/>
    </contour>
    <contour>
      <point x="45" y="755" type="qcurve" smooth="yes"/>
      <point x="45" y="1007"/>
      <point x="419" y="1289"/>
      <point x="868" y="1298" type="qcurve"/>
      <point x="868" y="1237" type="line"/>
      <point x="698" y="1235"/>
      <point x="568" y="1059"/>
      <point x="568" y="762" type="qcurve" smooth="yes"/>
      <point x="568" y="492"/>
      <point x="711" y="272"/>
      <point x="868" y="272" type="qcurve"/>
      <point x="868" y="212" type="line"/>
      <point x="445" y="212"/>
      <point x="45" y="487"/>
    </contour>
    <contour>
      <point x="650" y="35" type="line"/>
      <point x="793" y="70" type="line"/>
      <point x="794" y="242" type="line"/>
      <point x="802" y="252" type="line"/>
      <point x="803" y="771" type="line"/>
      <point x="1263" y="771" type="line"/>
      <point x="1264" y="256" type="line"/>
      <point x="1271" y="245" type="line"/>
      <point x="1272" y="70" type="line"/>
      <point x="1415" y="35" type="line"/>
      <point x="1415" y="-20" type="line"/>
      <point x="650" y="-20" type="line"/>
    </contour>
    <contour>
      <point x="650" y="1461" type="line"/>
      <point x="650" y="1520" type="line"/>
      <point x="1415" y="1520" type="line"/>
      <point x="1415" y="1461" type="line"/>
      <point x="1272" y="1427" type="line"/>
      <point x="1271" y="1267" type="line"/>
      <point x="1263" y="1258" type="line"/>
      <point x="1262" y="771" type="line"/>
      <point x="803" y="771" type="line"/>
      <point x="802" y="1259" type="line"/>
      <point x="794" y="1269" type="line"/>
      <point x="793" y="1427" type="line"/>
    </contour>
  </outline>
</glyph>
<glyph name="ghe" format="2">
  <advance width="1028"/>
  <unicode hex="0433"/>
  <outline>
    <contour>
      <point x="806" y="900" type="line"/>
      <point x="605" y="900" type="line"/>
      <point x="602" y="490" type="line"/>
      <point x="605" y="96" type="line"/>
      <point x="734" y="61" type="line"/>
      <point x="734" y="0" type="line"/>
      <point x="15" y="0" type="line"/>
      <point x="15" y="61" type="line"/>
      <point x="137" y="96" type="line"/>
      <point x="139" y="490" type="line"/>
      <point x="137" y="874" type="line"/>
      <point x="15" y="909" type="line"/>
      <point x="15" y="970" type="line"/>
      <point x="1008" y="970" type="line"/>
      <point x="1018" y="622" type="line"/>
      <point x="943" y="622" type="line"/>
    </contour>
  </outline>
</glyph>
<glyph name="de" format="2">
  <advance width="1238"/>
  <unicode hex="0434"/>
  <outline>
    <contour>
      <point x="245" y="874" type="line"/>
      <point x="123" y="909" type="line"/>
      <point x="123" y="970" type="line"/>
      <point x="1210" y="970" type="line"/>
      <point x="1210" y="909" type="line"/>
      <point x="1088" y="874" type="line"/>
      <point x="1086" y="490" type="line"/>
      <point x="1088" y="0" type="line"/>
      <point x="619" y="0" type="line"/>
      <point x="623" y="490" type="line"/>
      <point x="619" y="900" type="line"/>
      <point x="351" y="900" type="line"/>
      <point x="329" y="541" type="line" smooth="yes"/>
      <point x="319" y="385"/>
      <point x="273" y="134"/>
      <point x="233" y="40" type="qcurve"/>
      <point x="106" y="40" type="line"/>
      <point x="157" y="121"/>
      <point x="214" y="392"/>
      <point x="225" y="566" type="qcurve" smooth="yes"/>
    </contour>
    <contour>
      <point x="1153" y="-318" type="line"/>
      <point x="1015" y="0" type="line"/>
      <point x="218" y="0" type="line"/>
      <point x="80" y="-318" type="line"/>
      <point x="5" y="-318" type="line"/>
      <point x="15" y="78" type="line"/>
      <point x="1218" y="78" type="line"/>
      <point x="1228" y="-318" type="line"/>
    </contour>
  </outline>
</glyph>
<glyph name="hard" format="2">
  <advance width="1536"/>
  <unicode hex="044A"/>
  <outline>
    <contour>
      <point x="959" y="970" type="line"/>
      <point x="959" y="909" type="line"/>
      <point x="831" y="874" type="line"/>
      <point x="827" y="490" type="line"/>
      <point x="830" y="73" type="line"/>
      <point x="870" y="73" type="line" smooth="yes"/>
      <point x="988" y="73"/>
      <point x="1066" y="193"/>
      <point x="1066" y="298" type="qcurve" smooth="yes"/>
      <point x="1066" y="408"/>
      <point x="991" y="536"/>
      <point x="879" y="536" type="qcurve" smooth="yes"/>
      <point x="596" y="536" type="line"/>
      <point x="596" y="601" type="line"/>
      <point x="1090" y="601" type="line" smooth="yes"/>
      <point x="1310" y="601"/>
      <point x="1526" y="452"/>
      <point x="1526" y="294" type="qcurve" smooth="yes"/>
      <point x="1526" y="151"/>
      <point x="1315" y="0"/>
      <point x="1090" y="0" type="qcurve" smooth="yes"/>
      <point x="241" y="0" type="line"/>
      <point x="241" y="61" type="line"/>
      <point x="363" y="96" type="line"/>
      <point x="365" y="490" type="line"/>
      <point x="363" y="900" type="line"/>
      <point x="222" y="900" type="line"/>
      <point x="85" y="622" type="line"/>
      <point x="10" y="622" type="line"/>
      <point x="20" y="970" type="line"/>
    </contour>
  </outline>
</glyph>
<glyph name="yeru" format="2">
  <advance width="2010"/>
  <unicode hex="044B"/>
  <outline>
    <contour>
      <point x="604" y="73" type="line"/>
      <point x="644" y="73" type="line" smooth="yes"/>
      <point x="762" y="73"/>
      <point x="840" y="193"/>
      <point x="840" y="298" type="qcurve" smooth="yes"/>
      <point x="840" y="408"/>
      <point x="765" y="536"/>
      <point x="653" y="536" type="qcurve" smooth="yes"/>
      <point x="370" y="536" type="line"/>
      <point x="370" y="601" type="line"/>
      <point x="864" y="601" type="line" smooth="yes"/>
      <point x="1084" y="601"/>
      <point x="1300" y="452"/>
      <point x="1300" y="294" type="qcurve" smooth="yes"/>
      <point x="1300" y="151"/>
      <point x="1089" y="0"/>
      <point x="864" y="0" type="qcurve" smooth="yes"/>
      <point x="15" y="0" type="line"/>
      <point x="15" y="61" type="line"/>
      <point x="137" y="96" type="line"/>
      <point x="139" y="490" type="line"/>
      <point x="137" y="874" type="line"/>
      <point x="15" y="909" type="line"/>
      <point x="15" y="970" type="line"/>
      <point x="733" y="970" type="line"/>
      <point x="733" y="909" type="line"/>
      <point x="605" y="874" type="line"/>
      <point x="601" y="490" type="line"/>
    </contour>
    <contour>
      <point x="1870" y="490" type="line"/>
      <point x="1873" y="96" type="line"/>
      <point x="1995" y="61" type="line"/>
      <point x="1995" y="0" type="line"/>
      <point x="1307" y="0" type="line"/>
      <point x="1307" y="61" type="line"/>
      <point x="1405" y="96" type="line"/>
      <point x="1408" y="490" type="line"/>
      <point x="1405" y="874" type="line"/>
      <point x="1307" y="909" type="line"/>
      <point x="1307" y="970" type="line"/>
      <point x="1995" y="970" type="line"/>
      <point x="1995" y="909" type="line"/>
      <point x="1873" y="874" type="line"/>
    </contour>
  </outline>
</glyph>
<glyph name="yi" format="2">
  <advance width="746"/>
  <unicode hex="0457"/>
  <outline>
    <contour>
      <point x="25" y="0" type="line"/>
      <point x="25" y="61" type="line"/>
      <point x="146" y="96" type="line"/>
      <point x="148" y="502" type="line"/>
      <point x="147" y="845" type="line"/>
      <point x="24" y="880" type="line"/>
      <point x="24" y="943" type="line"/>
      <point x="504" y="979" type="line"/>
      <point x="569" y="979" type="line"/>
      <point x="624" y="930" type="line"/>
      <point x="617" y="502" type="line"/>
      <point x="619" y="96" type="line"/>
      <point x="728" y="61" type="line"/>
      <point x="728" y="0" type="line"/>
    </contour>
    <contour>
      <point x="17" y="1250.0" type="qcurve" smooth="yes"/>
      <point x="17" y="1351"/>
      <point x="98" y="1478"/>
      <point x="185" y="1478.0" type="qcurve" smooth="yes"/>
      <point x="272" y="1478"/>
      <point x="358" y="1359"/>
      <point x="357" y="1250.0" type="qcurve" smooth="yes"/>
      <point x="356" y="1156"/>
      <point x="276" y="1037"/>
      <point x="186" y="1037.0" type="qcurve" smooth="yes"/>
      <point x="100" y="1037"/>
      <point x="17" y="1156"/>
    </contour>
    <contour>
      <point x="390" y="1250.0" type="qcurve" smooth="yes"/>
      <point x="390" y="1351"/>
      <point x="471" y="1478"/>
      <point x="558" y="1478.0" type="qcurve" smooth="yes"/>
      <point x="646" y="1478"/>
      <point x="731" y="1359"/>
      <point x="730" y="1250.0" type="qcurve" smooth="yes"/>
      <point x="729" y="1156"/>
      <point x="649" y="1037"/>
      <point x="560" y="1037.0" type="qcurve" smooth="yes"/>
      <point x="473" y="1037"/>
      <point x="390" y="1156"/>
    </contour>
  </outline>
</glyph>
<glyph name="dzhe" format="2">
  <advance width="1486"/>
  <unicode hex="045F"/>
  <outline>
    <contour>
      <point x="856" y="0" type="line"/>
      <point x="790" y="-318" type="line"/>
      <point x="715" y="-318" type="line"/>
      <point x="650" y="0" type="line"/>
    </contour>
    <contour>
      <point x="139" y="480" type="line"/>
      <point x="137" y="874" type="line"/>
      <point x="15" y="909" type="line"/>
      <point x="15" y="970" type="line"/>
      <point x="699" y="970" type="line"/>
      <point x="699" y="909" type="line"/>
      <point x="606" y="874" type="line"/>
      <point x="602" y="480" type="line"/>
      <point x="605" y="70" type="line"/>
      <point x="880" y="70" type="line"/>
      <point x="883" y="480" type="line"/>
      <point x="880" y="874" type="line"/>
      <point x="787" y="909" type="line"/>
      <point x="787" y="970" type="line"/>
      <point x="1471" y="970" type="line"/>
      <point x="1471" y="909" type="line"/>
      <point x="1349" y="874" type="line"/>
      <point x="1346" y="480" type="line"/>
      <point x="1349" y="96" type="line"/>
      <point x="1471" y="61" type="line"/>
      <point x="1471" y="0" type="line"/>
      <point x="15" y="0" type="line"/>
      <point x="15" y="61" type="line"/>
      <point x="137" y="96" type="line"/>
    </contour>
  </outline>
</glyph>
<glyph name="gheup" format="2">
  <advance width="988"/>
  <unicode hex="0491"/>
  <outline>
    <contour>
      <point x="968" y="900" type="line"/>
      <point x="605" y="900" type="line"/>
      <point x="602" y="475" type="line"/>
      <point x="605" y="96" type="line"/>
      <point x="734" y="61" type="line"/>
      <point x="734" y="0" type="line"/>
      <point x="15" y="0" type="line"/>
      <point x="15" y="61" type="line"/>
      <point x="137" y="96" type="line"/>
      <point x="139" y="475" type="line"/>
      <point x="137" y="874" type="line"/>
      <point x="15" y="909" type="line"/>
      <point x="15" y="970" type="line"/>
      <point x="764" y="970" type="line"/>
      <point x="903" y="1288" type="line"/>
      <point x="978" y="1288" type="line"/>
    </contour>
  </outline>
</glyph>
<glyph name="zhedescender" format="2">
  <advance width="2008"/>
  <unicode hex="0497"/>
  <outline>
    <contour>
      <point x="1224" y="480" type="line"/>
      <point x="1554" y="797" type="line"/>
      <point x="1886" y="78" type="line"/>
      <point x="1886" y="0" type="line"/>
      <point x="1374" y="0" type="line"/>
      <point x="1370" y="46" type="line"/>
      <point x="1382" y="89" type="line"/>
    </contour>
    <contour>
      <point x="956" y="523" type="line"/>
      <point x="1233" y="521" type="line"/>
      <point x="1568" y="867" type="line"/>
      <point x="1455" y="897" type="line"/>
      <point x="1455" y="970" type="line"/>
      <point x="1843" y="970" type="line"/>
      <point x="1843" y="897" type="line"/>
      <point x="1687" y="867" type="line"/>
      <point x="1246" y="454" type="line"/>
      <point x="956" y="453" type="line"/>
    </contour>
    <contour>
      <point x="688" y="480" type="line"/>
      <point x="530" y="89" type="line"/>
      <point x="542" y="46" type="line"/>
      <point x="538" y="0" type="line"/>
      <point x="-39" y="0" type="line"/>
      <point x="-39" y="61" type="line"/>
      <point x="45" y="98" type="line"/>
      <point x="368" y="797" type="line"/>
    </contour>
    <contour>
      <point x="956" y="523" type="line"/>
      <point x="956" y="453" type="line"/>
      <point x="666" y="454" type="line"/>
      <point x="225" y="867" type="line"/>
      <point x="69" y="897" type="line"/>
      <point x="69" y="970" type="line"/>
      <point x="457" y="970" type="line"/>
      <point x="457" y="897" type="line"/>
      <point x="344" y="867" type="line"/>
      <point x="679" y="521" type="line"/>
    </contour>
    <contour>
      <point x="1182" y="490" type="line"/>
      <point x="1186" y="96" type="line"/>
      <point x="1274" y="61" type="line"/>
      <point x="1274" y="0" type="line"/>
      <point x="638" y="0" type="line"/>
      <point x="638" y="61" type="line"/>
      <point x="728" y="96" type="line"/>
      <point x="730" y="490" type="line"/>
      <point x="728" y="874" type="line"/>
      <point x="606" y="909" type="line"/>
      <point x="606" y="970" type="line"/>
      <point x="1306" y="970" type="line"/>
      <point x="1306" y="909" type="line"/>
      <point x="1186" y="874" type="line"/>
    </contour>
    <contour>
      <point x="1700" y="78" type="line"/>
      <point x="1988" y="78" type="line"/>
      <point x="1998" y="-318" type="line"/>
      <point x="1923" y="-318" type="line"/>
      <point x="1785" y="0" type="line"/>
      <point x="1700" y="0" type="line"/>
    </contour>
  </outline>
</glyph>
<glyph name="Kadescender" format="2">
  <advance width="1625"/>
  <unicode hex="049A"/>
  <outline>
    <contour>
      <point x="21" y="0" type="line"/>
      <point x="21" y="55" type="line"/>
      <point x="156" y="90" type="line"/>
      <point x="158" y="775" type="line"/>
      <point x="156" y="1407" type="line"/>
      <point x="21" y="1441" type="line"/>
      <point x="21" y="1500" type="line"/>
      <point x="786" y="1500" type="line"/>
      <point x="786" y="1441" type="line"/>
      <point x="643" y="1407" type="line"/>
      <point x="641" y="775" type="line"/>
      <point x="643" y="90" type="line"/>
      <point x="746" y="55" type="line"/>
      <point x="746" y="0" type="line"/>
    </contour>
    <contour>
      <point x="402" y="745" type="line"/>
      <point x="402" y="813" type="line"/>
      <point x="662" y="811" type="line"/>
      <point x="1217" y="1413" type="line"/>
      <point x="1064" y="1442" type="line"/>
      <point x="1064" y="1500" type="line"/>
      <point x="1505" y="1500" type="line"/>
      <point x="1505" y="1442" type="line"/>
      <point x="1314" y="1413" type="line"/>
      <point x="789" y="849" type="line"/>
      <point x="693" y="745" type="line"/>
    </contour>
    <contour>
      <point x="662" y="745" type="line"/>
      <point x="983" y="1100" type="line"/>
      <point x="1533" y="78" type="line"/>
      <point x="1533" y="0" type="line"/>
      <point x="925" y="0" type="line"/>
      <point x="925" y="55" type="line"/>
      <point x="1008" y="90" type="line"/>
    </contour>
    <contour>
      <point x="1302" y="78" type="line"/>
      <point x="1620" y="78" type="line"/>
      <point x="1630" y="-338" type="line"/>
      <point x="1555" y="-338" type="line"/>
      <point x="1416" y="0" type="line"/>
      <point x="1302" y="0" type="line"/>
    </contour>
  </outline>
</glyph>
<glyph name="kadescender" format="2">
  <advance width="1420"/>
  <unicode hex="049B"/>
  <outline>
    <contour>
      <point x="643" y="480" type="line"/>
      <point x="973" y="797" type="line"/>
      <point x="1326" y="78" type="line"/>
      <point x="1326" y="0" type="line"/>
      <point x="803" y="0" type="line"/>
      <point x="799" y="46" type="line"/>
      <point x="811" y="89" type="line"/>
    </contour>
    <contour>
      <point x="370" y="523" type="line"/>
      <point x="652" y="521" type="line"/>
      <point x="1007" y="867" type="line"/>
      <point x="894" y="897" type="line"/>
      <point x="894" y="970" type="line"/>
      <point x="1282" y="970" type="line"/>
      <point x="1282" y="897" type="line"/>
      <point x="1126" y="867" type="line"/>
      <point x="665" y="454" type="line"/>
      <point x="370" y="453" type="line"/>
    </contour>
    <contour>
      <point x="139" y="490" type="line"/>
      <point x="137" y="874" type="line"/>
      <point x="15" y="909" type="line"/>
      <point x="15" y="970" type="line"/>
      <point x="703" y="970" type="line"/>
      <point x="703" y="909" type="line"/>
      <point x="605" y="874" type="line"/>
      <point x="601" y="490" type="line"/>
      <point x="605" y="96" type="line"/>
      <point x="703" y="61" type="line"/>
      <point x="703" y="0" type="line"/>
      <point x="15" y="0" type="line"/>
      <point x="15" y="61" type="line"/>
      <point x="137" y="96" type="line"/>
    </contour>
    <contour>
      <point x="1112" y="78" type="line"/>
      <point x="1400" y="78" type="line"/>
      <point x="1410" y="-318" type="line"/>
      <point x="1335" y="-318" type="line"/>
      <point x="1197" y="0" type="line"/>
      <point x="1112" y="0" type="line"/>
    </contour>
  </outline>
</glyph>
<glyph name="Kaverticalstrokecyr" format="2">
  <advance width="1748"/>
  <unicode hex="049C"/>
  <outline>
    <contour>
      <point x="850" y="1193" type="line"/>
      <point x="850" y="371" type="line"/>
      <point x="750" y="371" type="line"/>
      <point x="750" y="1193" type="line"/>
    </contour>
    <contour>
      <point x="21" y="0" type="line"/>
      <point x="21" y="55" type="line"/>
      <point x="156" y="90" type="line"/>
      <point x="158" y="775" type="line"/>
      <point x="156" y="1407" type="line"/>
      <point x="21" y="1441" type="line"/>
      <point x="21" y="1500" type="line"/>
      <point x="786" y="1500" type="line"/>
      <point x="786" y="1441" type="line"/>
      <point x="643" y="1407" type="line"/>
      <point x="641" y="775" type="line"/>
      <point x="643" y="90" type="line"/>
      <point x="746" y="55" type="line"/>
      <point x="746" y="0" type="line"/>
    </contour>
    <contour>
      <point x="797" y="745" type="line"/>
      <point x="797" y="813" type="line"/>
      <point x="905" y="811" type="line"/>
      <point x="1400" y="1413" type="line"/>
      <point x="1247" y="1442" type="line"/>
      <point x="1247" y="1500" type="line"/>
      <point x="1688" y="1500" type="line"/>
      <point x="1688" y="1442" type="line"/>
      <point x="1497" y="1413" type="line"/>
      <point x="1006" y="828" type="line"/>
      <point x="936" y="745" type="line"/>
    </contour>
    <contour>
      <point x="905" y="745" type="line"/>
      <point x="1225" y="1120" type="line"/>
      <point x="1710" y="90" type="line"/>
      <point x="1803" y="55" type="line"/>
      <point x="1803" y="0" type="line"/>
      <point x="1108" y="0" type="line"/>
      <point x="1108" y="55" type="line"/>
      <point x="1191" y="90" type="line"/>
    </contour>
  </outline>
</glyph>
<glyph name="Endescender" format="2">
  <advance width="1718"/>
  <unicode hex="04A2"/>
  <outline>
    <contour>
      <point x="1045" y="775" type="line"/>
      <point x="1042" y="1407" type="line"/>
      <point x="909" y="1441" type="line"/>
      <point x="909" y="1500" type="line"/>
      <point x="1664" y="1500" type="line"/>
      <point x="1664" y="1441" type="line"/>
      <point x="1529" y="1407" type="line"/>
      <point x="1527" y="775" type="line"/>
      <point x="1529" y="78" type="line"/>
      <point x="1687" y="78" type="line"/>
      <point x="1697" y="-338" type="line"/>
      <point x="1622" y="-338" type="line"/>
      <point x="1483" y="0" type="line"/>
      <point x="909" y="0" type="line"/>
      <point x="909" y="55" type="line"/>
      <point x="1042" y="90" type="line"/>
    </contour>
    <contour>
      <point x="21" y="0" type="line"/>
      <point x="21" y="55" type="line"/>
      <point x="156" y="90" type="line"/>
      <point x="158" y="775" type="line"/>
      <point x="156" y="1407" type="line"/>
      <point x="21" y="1441" type="line"/>
      <point x="21" y="1500" type="line"/>
      <point x="776" y="1500" type="line"/>
      <point x="776" y="1441" type="line"/>
      <point x="643" y="1407" type="line"/>
      <point x="640" y="775" type="line"/>
      <point x="643" y="90" type="line"/>
      <point x="776" y="55" type="line"/>
      <point x="776" y="0" type="line"/>
    </contour>
    <contour>
      <point x="399" y="746" type="line"/>
      <point x="399" y="808" type="line"/>
      <point x="801" y="805" type="line"/>
      <point x="1287" y="808" type="line"/>
      <point x="1287" y="746" type="line"/>
      <point x="801" y="746" type="line"/>
    </contour>
  </outline>
</glyph>
<glyph name="Shha" format="2">
  <advance width="1645"/>
  <unicode hex="04BA"/>
  <outline>
    <contour>
      <point x="797" y="1500" type="line"/>
      <point x="797" y="1441" type="line"/>
      <point x="644" y="1407" type="line"/>
      <point x="642" y="780" type="line"/>
      <point x="644" y="90" type="line"/>
      <point x="777" y="55" type="line"/>
      <point x="777" y="0" type="line"/>
      <point x="21" y="0" type="line"/>
      <point x="21" y="55" type="line"/>
      <point x="156" y="90" type="line"/>
      <point x="158" y="775" type="line"/>
      <point x="156" y="1407" type="line"/>
      <point x="21" y="1441" type="line"/>
      <point x="21" y="1500" type="line"/>
    </contour>
    <contour>
      <point x="1634" y="55" type="line"/>
      <point x="1634" y="0" type="line"/>
      <point x="878" y="0" type="line"/>
      <point x="878" y="55" type="line"/>
      <point x="1011" y="90" type="line"/>
      <point x="1015" y="553" type="line" smooth="yes"/>
      <point x="1016" y="689"/>
      <point x="915" y="806"/>
      <point x="805" y="806" type="qcurve" smooth="yes"/>
      <point x="713" y="806"/>
      <point x="528" y="764"/>
      <point x="410" y="706" type="qcurve"/>
      <point x="410" y="772" type="line"/>
      <point x="529" y="832"/>
      <point x="793" y="885"/>
      <point x="973" y="885" type="qcurve" smooth="yes"/>
      <point x="1222" y="885"/>
      <point x="1498" y="720"/>
      <point x="1498" y="526" type="qcurve" smooth="yes"/>
      <point x="1499" y="90" type="line"/>
    </contour>
  </outline>
</glyph>
<glyph name="Obarcyr" format="2">
  <advance width="1665"/>
  <unicode hex="04E8"/>
  <outline>
    <contour>
      <point x="316" y="731" type="line"/>
      <point x="316" y="799" type="line"/>
      <point x="839" y="796" type="line"/>
      <point x="1349" y="799" type="line"/>
      <point x="1349" y="731" type="line"/>
      <point x="839" y="731" type="line"/>
    </contour>
    <contour>
      <point x="50" y="747" type="qcurve" smooth="yes"/>
      <point x="50" y="1109"/>
      <point x="515" y="1526"/>
      <point x="832" y="1526" type="qcurve" smooth="yes"/>
      <point x="1149" y="1526"/>
      <point x="1615" y="1127"/>
      <point x="1615" y="772" type="qcurve" smooth="yes"/>
      <point x="1615" y="388"/>
      <point x="1154" y="-20"/>
      <point x="837" y="-20" type="qcurve" smooth="yes"/>
      <point x="510" y="-20"/>
      <point x="50" y="377"/>
    </contour>
    <contour>
      <point x="582" y="761" type="qcurve" smooth="yes"/>
      <point x="582" y="285"/>
      <point x="692" y="37"/>
      <point x="843" y="37" type="qcurve" smooth="yes"/>
      <point x="994" y="37"/>
      <point x="1084" y="288"/>
      <point x="1084" y="762" type="qcurve" smooth="yes"/>
      <point x="1084" y="1236"/>
      <point x="955" y="1469"/>
      <point x="824" y="1469" type="qcurve" smooth="yes"/>
      <point x="693" y="1469"/>
      <point x="582" y="1237"/>
    </contour>
  </outline>
</glyph>
<glyph name="obarcyr" format="2">
  <advance width="1420"/>
  <unicode hex="04E9"/>
  <outline>
    <contour>
      <point x="36" y="485" type="qcurve" smooth="yes"/>
      <point x="36" y="729"/>
      <point x="411" y="996"/>
      <point x="708" y="996" type="qcurve" smooth="yes"/>
      <point x="1005" y="996"/>
      <point x="1384" y="736"/>
      <point x="1384" y="491" type="qcurve" smooth="yes"/>
      <point x="1384" y="246"/>
      <point x="1013" y="-25"/>
      <point x="714" y="-25" type="qcurve" smooth="yes"/>
      <point x="415" y="-25"/>
      <point x="36" y="229"/>
    </contour>
    <contour>
      <point x="535" y="499" type="qcurve" smooth="yes"/>
      <point x="535" y="209"/>
      <point x="629" y="34"/>
      <point x="706" y="34" type="qcurve" smooth="yes"/>
      <point x="789" y="34"/>
      <point x="886" y="181"/>
      <point x="885" y="481" type="qcurve" smooth="yes"/>
      <point x="885" y="767"/>
      <point x="784" y="925"/>
      <point x="708" y="925" type="qcurve" smooth="yes"/>
      <point x="626" y="925"/>
      <point x="535" y="776"/>
    </contour>
    <contour>
      <point x="286" y="523" type="line"/>
      <point x="707" y="520" type="line"/>
      <point x="1134" y="523" type="line"/>
      <point x="1134" y="453" type="line"/>
      <point x="707" y="455" type="line"/>
      <point x="286" y="453" type="line"/>
    </contour>
  </outline>
</glyph>
<glyph name="Germandbls" format="2">
	<unicode hex="1E9E"/>
	<advance width="1819"/>
	<outline>
		<contour>
			<point x="184.66" y="697" type="line"/>
			<point x="182.23" y="991" type="line" smooth="yes"/>
			<point x="179.37" y="1246"/>
			<point x="500.95" y="1529"/>
			<point x="860.83" y="1529" type="qcurve" smooth="yes"/>
			<point x="976.86" y="1529"/>
			<point x="1270.78" y="1499.44"/>
			<point x="1331.7" y="1490" type="qcurve"/>
			<point x="1332.13" y="1390" type="line"/>
			<point x="1204.73" y="1390"/>
			<point x="1048.02" y="1308.55"/>
			<point x="1048.02" y="1228.07" type="qcurve" smooth="yes"/>
			<point x="1048.02" y="1144.58"/>
			<point x="1194.17" y="1041.83"/>
			<point x="1392.41" y="931" type="qcurve" smooth="yes"/>
			<point x="1621.2" y="809.98"/>
			<point x="1782.92" y="582.35"/>
			<point x="1782.92" y="411.95" type="qcurve" smooth="yes"/>
			<point x="1782.92" y="225.83"/>
			<point x="1478.79" y="-28.88"/>
			<point x="1213.56" y="-28.88" type="qcurve" smooth="yes"/>
			<point x="1063.68" y="-28.88"/>
			<point x="907.7" y="35.12"/>
			<point x="852.08" y="85.02" type="qcurve"/>
			<point x="792.76" y="0.43" type="line"/>
			<point x="741.3" y="0.43" type="line"/>
			<point x="741.3" y="449.79" type="line"/>
			<point x="809.3" y="449.79" type="line"/>
			<point x="847.93" y="309.98" type="line" smooth="yes"/>
			<point x="881.84" y="192.33"/>
			<point x="1029.54" y="61.06"/>
			<point x="1146.93" y="61.06" type="qcurve" smooth="yes"/>
			<point x="1259.91" y="61.06"/>
			<point x="1391.89" y="171.49"/>
			<point x="1391.89" y="274.49" type="qcurve" smooth="yes"/>
			<point x="1391.89" y="367.61"/>
			<point x="1233.74" y="488.93"/>
			<point x="1100.66" y="572.89" type="qcurve" smooth="yes"/>
			<point x="921.56" y="687.69"/>
			<point x="748.97" y="889.57"/>
			<point x="748.97" y="1033.82" type="qcurve" smooth="yes"/>
			<point x="748.97" y="1189.41"/>
			<point x="997.71" y="1410.97"/>
			<point x="1159.93" y="1419.86" type="qcurve"/>
			<point x="976.17" y="1427.17" type="line" smooth="yes"/>
			<point x="828.78" y="1436.2"/>
			<point x="658.25" y="1300.41"/>
			<point x="659.82" y="1082" type="qcurve" smooth="yes"/>
			<point x="661.96" y="767" type="line"/>
			<point x="658.12" y="-396.58" type="line"/>
			<point x="815.24" y="-429.3" type="line"/>
			<point x="815.24" y="-460" type="line"/>
			<point x="49.4" y="-460" type="line"/>
			<point x="49.4" y="-429.3" type="line"/>
			<point x="182.23" y="-396.58" type="line"/>
		</contour>
	</outline>
</glyph>
<glyph name="horizontalbar" format="2">
	<unicode hex="2015"/>
	<advance width="1154"/>
	<outline>
		<contour>
			<point x="597.59" y="726.26" type="line"/>
			<point x="134.52" y="726.26" type="line"/>
			<point x="146.95" y="826.7" type="line"/>
			<point x="584.9" y="826.7" type="line"/>
			<point x="986.18" y="826.7" type="line"/>
			<point x="985.61" y="726.26" type="line"/>
		</contour>
	</outline>
</glyph>
<glyph name="quotesinglbase" format="2">
	<unicode hex="201A"/>
	<advance width="484"/>
	<outline>
		<contour>
			<point x="49.2" y="-243.4" type="line"/>
			<point x="142.76" y="-190.83"/>
			<point x="247.97" y="-69.33"/>
			<point x="281.12" y="16.81" type="qcurve"/>
			<point x="175.23" y="13.22"/>
			<point x="54.35" y="114.51"/>
			<point x="54.35" y="205.22" type="qcurve" smooth="yes"/>
			<point x="54.35" y="290.8"/>
			<point x="161.92" y="388.83"/>
			<point x="251.79" y="388.83" type="qcurve" smooth="yes"/>
			<point x="338.25" y="388.83"/>
			<point x="441.41" y="276.1"/>
			<point x="441.41" y="171.22" type="qcurve" smooth="yes"/>
			<point x="441.41" y="40.46"/>
			<point x="231.63" y="-227.56"/>
			<point x="85.94" y="-300.97" type="qcurve"/>
		</contour>
	</outline>
</glyph>
<glyph name="quotedblright" format="2">
	<unicode hex="201D"/>
	<advance width="982"/>
	<outline>
		<contour>
			<point x="50" y="907" type="line"/>
			<point x="144" y="959"/>
			<point x="249" y="1081"/>
			<point x="282" y="1167" type="qcurve"/>
			<point x="176" y="1163"/>
			<point x="55" y="1265"/>
			<point x="55" y="1355" type="qcurve" smooth="yes"/>
			<point x="55" y="1441"/>
			<point x="163" y="1539"/>
			<point x="253" y="1539" type="qcurve" smooth="yes"/>
			<point x="339" y="1539"/>
			<point x="442" y="1426"/>
			<point x="442" y="1321" type="qcurve" smooth="yes"/>
			<point x="442" y="1190"/>
			<point x="233" y="922"/>
			<point x="87" y="849" type="qcurve"/>
		</contour>
		<contour>
			<point x="547" y="907" type="line"/>
			<point x="640" y="959"/>
			<point x="745" y="1081"/>
			<point x="779" y="1167" type="qcurve"/>
			<point x="673" y="1163"/>
			<point x="552" y="1265"/>
			<point x="552" y="1355" type="qcurve" smooth="yes"/>
			<point x="552" y="1441"/>
			<point x="659" y="1539"/>
			<point x="749" y="1539" type="qcurve" smooth="yes"/>
			<point x="836" y="1539"/>
			<point x="939" y="1426"/>
			<point x="939" y="1321" type="qcurve" smooth="yes"/>
			<point x="939" y="1190"/>
			<point x="729" y="922"/>
			<point x="583" y="849" type="qcurve"/>
		</contour>
	</outline>
</glyph>
<glyph name="quotedblbase" format="2">
	<unicode hex="201E"/>
	<advance width="982"/>
	<outline>
		<contour>
			<point x="107" y="-243" type="line"/>
			<point x="201" y="-191"/>
			<point x="306" y="-69"/>
			<point x="339" y="17" type="qcurve"/>
			<point x="233" y="13"/>
			<point x="112" y="115"/>
			<point x="112" y="205" type="qcurve" smooth="yes"/>
			<point x="112" y="291"/>
			<point x="220" y="389"/>
			<point x="310" y="389" type="qcurve" smooth="yes"/>
			<point x="396" y="389"/>
			<point x="499" y="276"/>
			<point x="499" y="171" type="qcurve" smooth="yes"/>
			<point x="499" y="40"/>
			<point x="290" y="-228"/>
			<point x="144" y="-301" type="qcurve"/>
		</contour>
		<contour>
			<point x="576" y="-243" type="line"/>
			<point x="669" y="-191"/>
			<point x="774" y="-69"/>
			<point x="808" y="17" type="qcurve"/>
			<point x="702" y="13"/>
			<point x="581" y="115"/>
			<point x="581" y="205" type="qcurve" smooth="yes"/>
			<point x="581" y="291"/>
			<point x="688" y="389"/>
			<point x="778" y="389" type="qcurve" smooth="yes"/>
			<point x="865" y="389"/>
			<point x="968" y="276"/>
			<point x="968" y="171" type="qcurve" smooth="yes"/>
			<point x="968" y="40"/>
			<point x="758" y="-228"/>
			<point x="612" y="-301" type="qcurve"/>
		</contour>
	</outline>
</glyph>
<glyph name="daggerdbl" format="2">
	<unicode hex="2021"/>
	<advance width="991"/>
	<outline>
		<contour>
			<point x="456.45" y="-404.3" type="line"/>
			<point x="314" y="52" type="line"/>
			<point x="441.3" y="550" type="line"/>
			<point x="441.3" y="935.7" type="line"/>
			<point x="320.3" y="1398" type="line"/>
			<point x="418.3" y="1506" type="line"/>
			<point x="546.9" y="1506" type="line"/>
			<point x="644.9" y="1398" type="line"/>
			<point x="530.9" y="935.7" type="line"/>
			<point x="530.9" y="550" type="line"/>
			<point x="657.2" y="52" type="line"/>
			<point x="521.75" y="-404.3" type="line"/>
		</contour>
		<contour>
			<point x="54.9" y="864" type="line"/>
			<point x="54.9" y="967.6" type="line"/>
			<point x="486.6" y="950.6" type="line"/>
			<point x="936.3" y="967.6" type="line"/>
			<point x="936.3" y="864" type="line"/>
			<point x="486.6" y="887.71" type="line"/>
		</contour>
		<contour>
			<point x="54.9" y="554.11" type="line"/>
			<point x="54.9" y="657.71" type="line"/>
			<point x="486.6" y="640.71" type="line"/>
			<point x="936.3" y="657.71" type="line"/>
			<point x="936.3" y="554.11" type="line"/>
			<point x="486.6" y="577.82" type="line"/>
		</contour>
	</outline>
</glyph>
<glyph name="second" format="2">
	<unicode hex="2033"/>
	<advance width="815"/>
	<outline>
		<contour>
			<point x="90.5779032258" y="966.3" type="line"/>
			<point x="162.600483871" y="1389.3256451613" type="line" smooth="yes"/>
			<point x="176.22" y="1472.03"/>
			<point x="288.1173387097" y="1548.3511290323"/>
			<point x="362.0514516129" y="1521.0797580645" type="qcurve" smooth="yes"/>
			<point x="429.5555645161" y="1493.547016129"/>
			<point x="429.0961290323" y="1355.9096774194"/>
			<point x="380.0816129032" y="1290.6251612903" type="qcurve" smooth="yes"/>
			<point x="126.6709677419" y="954" type="line"/>
		</contour>
		<contour>
			<point x="469.3756451613" y="966.3" type="line"/>
			<point x="541.4479032258" y="1389.3256451613" type="line" smooth="yes"/>
			<point x="554.79" y="1472.03"/>
			<point x="666.9647580645" y="1542.6511290323"/>
			<point x="740.8988709677" y="1515.3797580645" type="qcurve" smooth="yes"/>
			<point x="807.832983871" y="1487.847016129"/>
			<point x="807.7412903226" y="1355.9096774194"/>
			<point x="758.7267741935" y="1290.6251612903" type="qcurve" smooth="yes"/>
			<point x="505.3161290323" y="954" type="line"/>
		</contour>
	</outline>
</glyph>
<glyph name="guilsinglright" format="2">
	<unicode hex="203A"/>
	<advance width="777"/>
	<outline>
		<contour>
			<point x="715.64" y="576.85" type="line"/>
			<point x="654" y="536"/>
			<point x="208.59" y="258"/>
			<point x="166.84" y="227" type="qcurve" smooth="yes"/>
			<point x="137.1" y="205"/>
			<point x="72.8" y="283.6"/>
			<point x="112.12" y="339.6" type="qcurve" smooth="yes"/>
			<point x="130.85" y="365.6"/>
			<point x="341.38" y="597.14"/>
			<point x="362.84" y="618" type="qcurve"/>
			<point x="345.1" y="641.15"/>
			<point x="134.71" y="867.69"/>
			<point x="107.4" y="901.4" type="qcurve" smooth="yes"/>
			<point x="71.08" y="947.11"/>
			<point x="129.95" y="1027"/>
			<point x="180.28" y="1000" type="qcurve" smooth="yes"/>
			<point x="231.61" y="972"/>
			<point x="656.64" y="701.15"/>
			<point x="715.64" y="658.15" type="qcurve"/>
		</contour>
	</outline>
</glyph>
<glyph name="franc" format="2">
	<unicode hex="20A3"/>
	<advance width="1091"/>
	<outline>
		<contour>
			<point x="32.52" y="0" type="line"/>
			<point x="32.52" y="52.72" type="line"/>
			<point x="130.52" y="85.72" type="line"/>
			<point x="132.52" y="757.58" type="line"/>
			<point x="130.52" y="1410.42" type="line"/>
			<point x="32.52" y="1443.99" type="line"/>
			<point x="32.52" y="1500" type="line"/>
			<point x="1053" y="1500" type="line"/>
			<point x="1054.92" y="1137.64" type="line"/>
			<point x="992.45" y="1137.64" type="line"/>
			<point x="884" y="1436" type="line"/>
			<point x="630" y="1436" type="line"/>
			<point x="589.09" y="1408.13" type="line"/>
			<point x="590.96" y="758.4" type="line"/>
			<point x="592.96" y="90.15" type="line"/>
			<point x="716.93" y="53.72" type="line"/>
			<point x="716.93" y="0" type="line"/>
		</contour>
		<contour>
			<point x="361.65" y="763.2" type="line"/>
			<point x="361.65" y="818.62" type="line"/>
			<point x="856.39" y="822.05" type="line"/>
			<point x="932.52" y="996.6" type="line"/>
			<point x="990.71" y="996.6" type="line"/>
			<point x="990.71" y="567.5" type="line"/>
			<point x="933.24" y="567.5" type="line"/>
			<point x="856.39" y="758.05" type="line"/>
		</contour>
		<contour>
			<point x="22.73" y="382.84" type="line"/>
			<point x="8.73" y="472.44" type="line"/>
			<point x="907.23" y="472.44" type="line"/>
			<point x="887.23" y="382.84" type="line"/>
		</contour>
	</outline>
</glyph>
<glyph name="dong" format="2">
	<unicode hex="20AB"/>
	<advance width="1420"/>
	<outline>
		<contour>
			<point x="38.34" y="475.96" type="qcurve" smooth="yes"/>
			<point x="38.34" y="752.54"/>
			<point x="368.45" y="987.15"/>
			<point x="582.08" y="987.15" type="qcurve" smooth="yes"/>
			<point x="681.91" y="987.15"/>
			<point x="816.96" y="951.55"/>
			<point x="849.87" y="930.24" type="qcurve"/>
			<point x="846.3" y="1404.41" type="line"/>
			<point x="720.89" y="1439.99" type="line"/>
			<point x="720.89" y="1500" type="line"/>
			<point x="1216.15" y="1512" type="line"/>
			<point x="1253.02" y="1511.57" type="line"/>
			<point x="1297.6" y="1464.28" type="line"/>
			<point x="1288.04" y="498" type="line"/>
			<point x="1292.18" y="87.46" type="line"/>
			<point x="1385.02" y="57.02" type="line"/>
			<point x="1385.02" y="0" type="line"/>
			<point x="868.9" y="0" type="line"/>
			<point x="857.18" y="16.43" type="line"/>
			<point x="850.45" y="91.75" type="line"/>
			<point x="817.67" y="49.31"/>
			<point x="625.63" y="-15.02"/>
			<point x="492.78" y="-15.02" type="qcurve" smooth="yes"/>
			<point x="318.33" y="-15.02"/>
			<point x="38.34" y="217.7"/>
		</contour>
		<contour>
			<point x="513.52" y="480.52" type="qcurve" smooth="yes"/>
			<point x="513.52" y="221.05"/>
			<point x="601.29" y="89.11"/>
			<point x="681.72" y="89.11" type="qcurve" smooth="yes"/>
			<point x="730.97" y="89.11"/>
			<point x="832.66" y="137.33"/>
			<point x="850.72" y="183.63" type="qcurve" smooth="yes"/>
			<point x="852.01" y="501.45" type="line"/>
			<point x="851.43" y="822.86" type="line" smooth="yes"/>
			<point x="841.11" y="849.13"/>
			<point x="758.91" y="896.29"/>
			<point x="689.64" y="895.72" type="qcurve" smooth="yes"/>
			<point x="605.06" y="895.15"/>
			<point x="513.52" y="734.33"/>
		</contour>
		<contour>
			<point x="141.11" y="-216.3" type="line"/>
			<point x="141.11" y="-152.3" type="line"/>
			<point x="721.11" y="-152.3" type="line"/>
			<point x="1309.61" y="-152.3" type="line"/>
			<point x="1309.61" y="-216.3" type="line"/>
			<point x="722.11" y="-216.3" type="line"/>
		</contour>
		<contour>
			<point x="340.9" y="1148.44" type="line"/>
			<point x="341.9" y="1207.15" type="line"/>
			<point x="913.4" y="1207.15" type="line"/>
			<point x="1413.9" y="1207.15" type="line"/>
			<point x="1413.9" y="1148.44" type="line"/>
			<point x="912.4" y="1148.44" type="line"/>
		</contour>
	</outline>
</glyph>
<glyph name="guarani" format="2">
	<unicode hex="20B2"/>
	<advance width="1291"/>
	<outline>
		<contour>
			<point x="42.17" y="747.98" type="qcurve" smooth="yes"/>
			<point x="42.17" y="1119.23"/>
			<point x="377.44" y="1517.43"/>
			<point x="671.35" y="1517" type="qcurve" smooth="yes"/>
			<point x="902.74" y="1517.43"/>
			<point x="1141.68" y="1282.75"/>
			<point x="1150.16" y="1041.37" type="qcurve"/>
			<point x="1070.92" y="1041.37" type="line"/>
			<point x="1064.16" y="1256.27"/>
			<point x="880.73" y="1445.52"/>
			<point x="759.36" y="1445.52" type="qcurve" smooth="yes"/>
			<point x="629.76" y="1445.52"/>
			<point x="488.1" y="1247.95"/>
			<point x="488.96" y="757.45" type="qcurve" smooth="yes"/>
			<point x="489.82" y="231.08"/>
			<point x="583.31" y="46.3"/>
			<point x="709.74" y="46.3" type="qcurve" smooth="yes"/>
			<point x="784.43" y="46.3"/>
			<point x="858.28" y="124.73"/>
			<point x="856.13" y="233.33" type="qcurve" smooth="yes"/>
			<point x="854.41" y="506.45" type="line" smooth="yes"/>
			<point x="853.55" y="589.28"/>
			<point x="822.95" y="619.57"/>
			<point x="763.49" y="635.54" type="qcurve"/>
			<point x="765.64" y="691.56" type="line"/>
			<point x="1214.92" y="689.26" type="line"/>
			<point x="1221.8" y="144.72" type="line"/>
			<point x="1154.49" y="81.57"/>
			<point x="878.15" y="-19.45"/>
			<point x="716.89" y="-19.45" type="qcurve" smooth="yes"/>
			<point x="402.51" y="-19.45"/>
			<point x="42.17" y="382.34"/>
		</contour>
		<contour>
			<point x="449.14" y="-134.08" type="line"/>
			<point x="501.61" y="45.96" type="line"/>
			<point x="501.61" y="45.96" type="line"/>
			<point x="707.76" y="876.7" type="line"/>
			<point x="743.64" y="852.36" type="line"/>
			<point x="545.79" y="40.96" type="line"/>
			<point x="545.79" y="41.96" type="line"/>
			<point x="494.32" y="-143.08" type="line"/>
		</contour>
		<contour>
			<point x="906.63" y="1669.96" type="line"/>
			<point x="948.38" y="1668.4" type="line"/>
			<point x="890.48" y="1458.51" type="line"/>
			<point x="890.91" y="1457.51" type="line"/>
			<point x="743.64" y="852.36" type="line"/>
			<point x="707.76" y="876.7" type="line"/>
			<point x="847.3" y="1461.51" type="line"/>
			<point x="848.3" y="1461.51" type="line"/>
		</contour>
	</outline>
</glyph>
<glyph name="liraTurkish" format="2">
	<unicode hex="20BA"/>
	<advance width="1238"/>
	<outline>
		<contour>
			<point x="161.12" y="-18" type="line"/>
			<point x="130.41" y="26.7" type="line"/>
			<point x="177.85" y="78.6" type="line"/>
			<point x="180.71" y="754" type="line"/>
			<point x="177.85" y="1408.86" type="line"/>
			<point x="34.97" y="1452" type="line"/>
			<point x="34.97" y="1493.29" type="line"/>
			<point x="383.58" y="1487.59" type="line"/>
			<point x="789.48" y="1500.88" type="line"/>
			<point x="790.77" y="1456.04" type="line"/>
			<point x="628" y="1403.16" type="line"/>
			<point x="624.71" y="754" type="line"/>
			<point x="627.57" y="142.84" type="line"/>
			<point x="644.6" y="127.96" type="line"/>
			<point x="855.46" y="195.63"/>
			<point x="1076.21" y="443.12"/>
			<point x="1098.67" y="629.58" type="qcurve" smooth="yes"/>
			<point x="1112.69" y="740.33" type="line"/>
			<point x="1158.29" y="740.33" type="line"/>
			<point x="1165.92" y="342.64" type="line"/>
			<point x="1083.3" y="251.06"/>
			<point x="648.64" y="43.56"/>
			<point x="411.09" y="12.01" type="qcurve" smooth="yes"/>
		</contour>
		<contour>
			<point x="57.06" y="517.45" type="line"/>
			<point x="38.48" y="578.46" type="line"/>
			<point x="460.09" y="701.34" type="line"/>
			<point x="460.09" y="701.34" type="line"/>
			<point x="948.02" y="849.79" type="line"/>
			<point x="942.16" y="780.48" type="line"/>
			<point x="469.52" y="638.04" type="line"/>
			<point x="469.52" y="637.47" type="line"/>
		</contour>
		<contour>
			<point x="49.75" y="773.2" type="line"/>
			<point x="30.74" y="832.64" type="line"/>
			<point x="443.52" y="950.25" type="line"/>
			<point x="443.52" y="949.68" type="line"/>
			<point x="978.19" y="1105.27" type="line"/>
			<point x="968.33" y="1032.53" type="line"/>
			<point x="452.09" y="887.52" type="line"/>
			<point x="452.09" y="886.95" type="line"/>
		</contour>
	</outline>
</glyph>
<glyph name="bulletoperator" format="2">
	<unicode hex="2219"/>
	<advance width="879"/>
	<outline>
		<contour>
			<point x="220.97" y="623.54" type="qcurve" smooth="yes"/>
			<point x="220.97" y="707.41"/>
			<point x="344.13" y="831"/>
			<point x="439.43" y="831" type="qcurve" smooth="yes"/>
			<point x="535.3" y="831"/>
			<point x="659.46" y="707.41"/>
			<point x="659.46" y="623.54" type="qcurve" smooth="yes"/>
			<point x="659.46" y="542.1"/>
			<point x="535.3" y="417.51"/>
			<point x="439.43" y="417.51" type="qcurve" smooth="yes"/>
			<point x="344.13" y="417.51"/>
			<point x="220.97" y="542.1"/>
		</contour>
	</outline>
</glyph>
<glyph name="lessequal" format="2">
	<unicode hex="2264"/>
	<advance width="919"/>
	<outline>
		<contour>
			<point x="54.32" y="46.3" type="line"/>
			<point x="54.32" y="254.2" type="line"/>
			<point x="855.67" y="254.2" type="line"/>
			<point x="855.67" y="46.3" type="line"/>
		</contour>
		<contour>
			<point x="62.52" y="742.6" type="qcurve"/>
			<point x="81.82" y="773.04"/>
			<point x="685.85" y="1123.11"/>
			<point x="749.33" y="1157.12" type="qcurve" smooth="yes"/>
			<point x="787.78" y="1178.84"/>
			<point x="869.92" y="995.08"/>
			<point x="835.9" y="974.36" type="qcurve" smooth="yes"/>
			<point x="750.52" y="925.9"/>
			<point x="481.66" y="769.02"/>
			<point x="452.13" y="747.76" type="qcurve"/>
			<point x="485.08" y="724.8"/>
			<point x="771.92" y="568.25"/>
			<point x="836.32" y="534.8" type="qcurve" smooth="yes"/>
			<point x="866.06" y="515.37"/>
			<point x="784.65" y="335.31"/>
			<point x="761.77" y="345.6" type="qcurve" smooth="yes"/>
			<point x="661.57" y="394.9"/>
			<point x="64.24" y="718.73"/>
		</contour>
	</outline>
</glyph>
<glyph name="leftanglebracket" format="2">
	<unicode hex="27E8"/>
	<advance width="1012"/>
	<outline>
		<contour>
			<point x="852.73" y="1442.94" type="line"/>
			<point x="979.76" y="1289.75" type="line"/>
			<point x="467.1" y="692" type="line"/>
			<point x="977.9" y="77" type="line"/>
			<point x="865.46" y="-72.57" type="line"/>
			<point x="64.1" y="627.7" type="line"/>
			<point x="64.1" y="712.3" type="line"/>
		</contour>
	</outline>
</glyph>
<glyph name="f_f" format="2">
	<unicode hex="FB00"/>
	<advance width="1555"/>
	<outline>
		<contour>
			<point x="19" y="0" type="line"/>
			<point x="19" y="61" type="line"/>
			<point x="129" y="96" type="line"/>
			<point x="139" y="502" type="line"/>
			<point x="139" y="839" type="line"/>
			<point x="18" y="852" type="line"/>
			<point x="18" y="927" type="line"/>
			<point x="139" y="953" type="line"/>
			<point x="134" y="1126" type="line" smooth="yes"/>
			<point x="129" y="1292"/>
			<point x="307" y="1477"/>
			<point x="488" y="1477" type="qcurve" smooth="yes"/>
			<point x="595" y="1477"/>
			<point x="733" y="1438"/>
			<point x="773" y="1418" type="qcurve" smooth="yes"/>
			<point x="793" y="1408" type="line"/>
			<point x="789" y="1307" type="line"/>
			<point x="782" y="1311" type="line" smooth="yes"/>
			<point x="767" y="1320"/>
			<point x="707" y="1339"/>
			<point x="673" y="1339" type="qcurve" smooth="yes"/>
			<point x="646" y="1339"/>
			<point x="609" y="1309"/>
			<point x="608" y="1264" type="qcurve" smooth="yes"/>
			<point x="603" y="943" type="line"/>
			<point x="898" y="943" type="line"/>
			<point x="892" y="1156" type="line" smooth="yes"/>
			<point x="887" y="1322"/>
			<point x="1066" y="1507"/>
			<point x="1247" y="1507" type="qcurve" smooth="yes"/>
			<point x="1354" y="1507"/>
			<point x="1492" y="1470"/>
			<point x="1532" y="1449" type="qcurve" smooth="yes"/>
			<point x="1552" y="1438" type="line"/>
			<point x="1548" y="1337" type="line"/>
			<point x="1541" y="1341" type="line" smooth="yes"/>
			<point x="1526" y="1350"/>
			<point x="1466" y="1369"/>
			<point x="1432" y="1369" type="qcurve" smooth="yes"/>
			<point x="1405" y="1369"/>
			<point x="1367" y="1339"/>
			<point x="1367" y="1294" type="qcurve" smooth="yes"/>
			<point x="1362" y="943" type="line"/>
			<point x="1537" y="943" type="line"/>
			<point x="1537" y="859" type="line"/>
			<point x="1362" y="854" type="line"/>
			<point x="1360" y="502" type="line"/>
			<point x="1362" y="96" type="line"/>
			<point x="1489" y="61" type="line"/>
			<point x="1489" y="0" type="line"/>
			<point x="798" y="0" type="line"/>
			<point x="798" y="61" type="line"/>
			<point x="888" y="96" type="line"/>
			<point x="898" y="502" type="line"/>
			<point x="898" y="829" type="line"/>
			<point x="887" y="852" type="line"/>
			<point x="603" y="857" type="line"/>
			<point x="601" y="502" type="line"/>
			<point x="603" y="96" type="line"/>
			<point x="720" y="61" type="line"/>
			<point x="720" y="0" type="line"/>
		</contour>
	</outline>
</glyph>
<glyph name="f_f_i" format="2">
	<unicode hex="FB03"/>
	<advance width="2257"/>
	<outline>
		<contour>
			<point x="19" y="0" type="line"/>
			<point x="19" y="61" type="line"/>
			<point x="129" y="96" type="line"/>
			<point x="139" y="502" type="line"/>
			<point x="139" y="839" type="line"/>
			<point x="18" y="852" type="line"/>
			<point x="18" y="927" type="line"/>
			<point x="139" y="953" type="line"/>
			<point x="134" y="1126" type="line" smooth="yes"/>
			<point x="129" y="1292"/>
			<point x="307" y="1477"/>
			<point x="488" y="1477" type="qcurve" smooth="yes"/>
			<point x="595" y="1477"/>
			<point x="733" y="1438"/>
			<point x="773" y="1418" type="qcurve" smooth="yes"/>
			<point x="793" y="1408" type="line"/>
			<point x="789" y="1307" type="line"/>
			<point x="782" y="1311" type="line" smooth="yes"/>
			<point x="767" y="1320"/>
			<point x="707" y="1339"/>
			<point x="673" y="1339" type="qcurve" smooth="yes"/>
			<point x="646" y="1339"/>
			<point x="609" y="1309"/>
			<point x="608" y="1264" type="qcurve" smooth="yes"/>
			<point x="603" y="953" type="line"/>
			<point x="898" y="953" type="line"/>
			<point x="894" y="1091" type="line" smooth="yes"/>
			<point x="888" y="1301"/>
			<point x="1096" y="1507"/>
			<point x="1264" y="1507" type="qcurve" smooth="yes"/>
			<point x="1384" y="1507"/>
			<point x="1539" y="1467"/>
			<point x="1587" y="1440" type="qcurve" smooth="yes"/>
			<point x="1618" y="1423" type="line"/>
			<point x="1591" y="1326" type="line"/>
			<point x="1572" y="1336" type="line" smooth="yes"/>
			<point x="1546" y="1350"/>
			<point x="1496" y="1366"/>
			<point x="1462" y="1366" type="qcurve" smooth="yes"/>
			<point x="1426" y="1366"/>
			<point x="1367" y="1309"/>
			<point x="1366" y="1229" type="qcurve" smooth="yes"/>
			<point x="1362" y="953" type="line"/>
			<point x="2015" y="979" type="line"/>
			<point x="2080" y="979" type="line"/>
			<point x="2135" y="930" type="line"/>
			<point x="2128" y="502" type="line"/>
			<point x="2130" y="96" type="line"/>
			<point x="2239" y="61" type="line"/>
			<point x="2239" y="0" type="line"/>
			<point x="1566" y="0" type="line"/>
			<point x="1566" y="61" type="line"/>
			<point x="1657" y="96" type="line"/>
			<point x="1659" y="502" type="line"/>
			<point x="1658" y="845" type="line"/>
			<point x="1644" y="859" type="line"/>
			<point x="1362" y="864" type="line"/>
			<point x="1360" y="502" type="line"/>
			<point x="1362" y="96" type="line"/>
			<point x="1479" y="61" type="line"/>
			<point x="1479" y="0" type="line"/>
			<point x="798" y="0" type="line"/>
			<point x="798" y="61" type="line"/>
			<point x="888" y="96" type="line"/>
			<point x="898" y="502" type="line"/>
			<point x="898" y="862" type="line"/>
			<point x="603" y="867" type="line"/>
			<point x="601" y="502" type="line"/>
			<point x="603" y="96" type="line"/>
			<point x="720" y="61" type="line"/>
			<point x="720" y="0" type="line"/>
		</contour>
		<contour>
			<point x="1651" y="1250" type="qcurve" smooth="yes"/>
			<point x="1651" y="1341"/>
			<point x="1784" y="1478"/>
			<point x="1899" y="1478" type="qcurve" smooth="yes"/>
			<point x="2012" y="1478"/>
			<point x="2153" y="1349"/>
			<point x="2152" y="1250" type="qcurve" smooth="yes"/>
			<point x="2152" y="1166"/>
			<point x="2018" y="1037"/>
			<point x="1901" y="1037" type="qcurve" smooth="yes"/>
			<point x="1789" y="1037"/>
			<point x="1651" y="1166"/>
		</contour>
	</outline>
</glyph>
<glyph name="f_f_l" format="2">
	<unicode hex="FB04"/>
	<advance width="2253"/>
	<outline>
		<contour>
			<point x="19" y="0" type="line"/>
			<point x="19" y="61" type="line"/>
			<point x="129" y="96" type="line"/>
			<point x="139" y="502" type="line"/>
			<point x="139" y="839" type="line"/>
			<point x="18" y="852" type="line"/>
			<point x="18" y="927" type="line"/>
			<point x="139" y="953" type="line"/>
			<point x="134" y="1126" type="line" smooth="yes"/>
			<point x="129" y="1292"/>
			<point x="307" y="1477"/>
			<point x="488" y="1477" type="qcurve" smooth="yes"/>
			<point x="595" y="1477"/>
			<point x="733" y="1438"/>
			<point x="773" y="1418" type="qcurve" smooth="yes"/>
			<point x="793" y="1408" type="line"/>
			<point x="789" y="1307" type="line"/>
			<point x="782" y="1311" type="line" smooth="yes"/>
			<point x="767" y="1320"/>
			<point x="707" y="1339"/>
			<point x="673" y="1339" type="qcurve" smooth="yes"/>
			<point x="646" y="1339"/>
			<point x="609" y="1309"/>
			<point x="608" y="1264" type="qcurve" smooth="yes"/>
			<point x="603" y="943" type="line"/>
			<point x="898" y="943" type="line"/>
			<point x="892" y="1156" type="line" smooth="yes"/>
			<point x="887" y="1322"/>
			<point x="1066" y="1526"/>
			<point x="1244" y="1526" type="qcurve" smooth="yes"/>
			<point x="1339" y="1526"/>
			<point x="1495" y="1506"/>
			<point x="1523" y="1504" type="qcurve" smooth="yes"/>
			<point x="1563" y="1501" type="line"/>
			<point x="2054" y="1512" type="line"/>
			<point x="2084" y="1511" type="line"/>
			<point x="2134" y="1465" type="line"/>
			<point x="2132" y="527" type="line"/>
			<point x="2134" y="96" type="line"/>
			<point x="2248" y="61" type="line"/>
			<point x="2248" y="0" type="line"/>
			<point x="1563" y="0" type="line"/>
			<point x="1563" y="61" type="line"/>
			<point x="1666" y="96" type="line"/>
			<point x="1668" y="527" type="line"/>
			<point x="1666" y="1374" type="line"/>
			<point x="1565" y="1397" type="line" smooth="yes"/>
			<point x="1540" y="1403"/>
			<point x="1499" y="1409"/>
			<point x="1464" y="1409" type="qcurve" smooth="yes"/>
			<point x="1417" y="1409"/>
			<point x="1362" y="1346"/>
			<point x="1362" y="1294" type="qcurve" smooth="yes"/>
			<point x="1362" y="943" type="line"/>
			<point x="1557" y="943" type="line"/>
			<point x="1557" y="859" type="line"/>
			<point x="1362" y="854" type="line"/>
			<point x="1360" y="502" type="line"/>
			<point x="1362" y="96" type="line"/>
			<point x="1479" y="61" type="line"/>
			<point x="1479" y="0" type="line"/>
			<point x="798" y="0" type="line"/>
			<point x="798" y="61" type="line"/>
			<point x="888" y="96" type="line"/>
			<point x="898" y="502" type="line"/>
			<point x="898" y="829" type="line"/>
			<point x="887" y="852" type="line"/>
			<point x="603" y="857" type="line"/>
			<point x="601" y="502" type="line"/>
			<point x="603" y="96" type="line"/>
			<point x="720" y="61" type="line"/>
			<point x="720" y="0" type="line"/>
		</contour>
	</outline>
</glyph>
<glyph name="brevebelowcomb.case" format="2">
	<advance width="896"/>
	<outline>
		<contour>
			<point x="714.36" y="-194.2" type="qcurve"/>
			<point x="740.61" y="-181.3" type="line"/>
			<point x="740.96" y="-280.71"/>
			<point x="574.04" y="-461.9"/>
			<point x="450.72" y="-461.9" type="qcurve" smooth="yes"/>
			<point x="313.64" y="-461.9"/>
			<point x="155.05" y="-301.31"/>
			<point x="156.25" y="-186.6" type="qcurve"/>
			<point x="184.78" y="-193.34" type="line"/>
			<point x="213.77" y="-245.8"/>
			<point x="355.82" y="-314.86"/>
			<point x="452.58" y="-313.58" type="qcurve" smooth="yes"/>
			<point x="553.61" y="-314.86"/>
			<point x="692.82" y="-238.35"/>
		</contour>
	</outline>
</glyph>
<glyph name="brevecomb.case" format="2">
	<advance width="896"/>
	<outline>
		<contour>
			<point x="704.9" y="1855.02" type="qcurve"/>
			<point x="769.85" y="1846.85" type="line"/>
			<point x="748.27" y="1734.54"/>
			<point x="585.22" y="1554.21"/>
			<point x="449" y="1554.21" type="qcurve" smooth="yes"/>
			<point x="312.78" y="1554.21"/>
			<point x="146.45" y="1722.54"/>
			<point x="126.15" y="1844.99" type="qcurve"/>
			<point x="194.24" y="1855.02" type="line"/>
			<point x="225.81" y="1806.86"/>
			<point x="358.4" y="1736.08"/>
			<point x="454.73" y="1737.79" type="qcurve" smooth="yes"/>
			<point x="554.04" y="1736.08"/>
			<point x="674.76" y="1807.43"/>
		</contour>
	</outline>
</glyph>
<glyph name="brevecombstack.case" format="2">
	<advance width="1024"/>
	<outline>
		<contour>
			<point x="751.02" y="1841.57" type="qcurve"/>
			<point x="788.45" y="1840.71" type="line"/>
			<point x="783.21" y="1738.72"/>
			<point x="630.05" y="1580.97"/>
			<point x="507.16" y="1580.97" type="qcurve" smooth="yes"/>
			<point x="381.69" y="1580.97"/>
			<point x="226.11" y="1724.14"/>
			<point x="222.58" y="1840.57" type="qcurve"/>
			<point x="263.15" y="1842" type="line"/>
			<point x="289.98" y="1792.25"/>
			<point x="423.44" y="1745.2"/>
			<point x="508.59" y="1744.77" type="qcurve" smooth="yes"/>
			<point x="595.45" y="1745.2"/>
			<point x="724.91" y="1799.83"/>
		</contour>
	</outline>
</glyph>
<glyph name="caroncomb.case" format="2">
	<advance width="896"/>
	<outline>
		<contour>
			<point x="453.56" y="1567.43" type="qcurve" smooth="yes"/>
			<point x="410.84" y="1567.43"/>
			<point x="361.81" y="1615.16"/>
			<point x="318.08" y="1672.44" type="qcurve" smooth="yes"/>
			<point x="132.87" y="1916.27" type="line"/>
			<point x="181.77" y="1952.19" type="line"/>
			<point x="453.56" y="1772.15" type="line"/>
			<point x="734.47" y="1960.17" type="line"/>
			<point x="780.23" y="1916.13" type="line"/>
			<point x="589.04" y="1672.44" type="line" smooth="yes"/>
			<point x="546.44" y="1619.28"/>
			<point x="496.28" y="1567.43"/>
		</contour>
	</outline>
</glyph>
<glyph name="commaaccentcomb.case" format="2">
	<advance width="896"/>
	<outline>
		<contour>
			<point x="354.53" y="-479.57" type="line"/>
			<point x="416.29" y="-442.98"/>
			<point x="486.99" y="-377.25"/>
			<point x="505.67" y="-327.01" type="qcurve"/>
			<point x="420.28" y="-340.71"/>
			<point x="341.85" y="-273.44"/>
			<point x="341.85" y="-221" type="qcurve" smooth="yes"/>
			<point x="341.85" y="-169.56"/>
			<point x="410.01" y="-107.57"/>
			<point x="473.15" y="-107.57" type="qcurve" smooth="yes"/>
			<point x="533.71" y="-107.57"/>
			<point x="602.29" y="-184.85"/>
			<point x="602.29" y="-240.14" type="qcurve" smooth="yes"/>
			<point x="602.29" y="-317.69"/>
			<point x="483.17" y="-463.26"/>
			<point x="373.67" y="-512.43" type="qcurve"/>
		</contour>
	</outline>
</glyph>
<glyph name="dieresiscombstack.case" format="2">
	<advance width="1024"/>
	<outline>
		<contour>
			<point x="192.54" y="1660.46" type="qcurve" smooth="yes"/>
			<point x="192.54" y="1717.75"/>
			<point x="263.4" y="1786.04"/>
			<point x="323.12" y="1786.04" type="qcurve" smooth="yes"/>
			<point x="381.41" y="1786.04"/>
			<point x="452.7" y="1716.32"/>
			<point x="452.7" y="1660.46" type="qcurve" smooth="yes"/>
			<point x="452.7" y="1603.17"/>
			<point x="380.84" y="1532.88"/>
			<point x="323.12" y="1532.88" type="qcurve" smooth="yes"/>
			<point x="263.83" y="1532.88"/>
			<point x="192.54" y="1604.17"/>
		</contour>
		<contour>
			<point x="571.3" y="1660.46" type="qcurve" smooth="yes"/>
			<point x="571.3" y="1717.75"/>
			<point x="643.16" y="1786.04"/>
			<point x="700.88" y="1786.04" type="qcurve" smooth="yes"/>
			<point x="760.17" y="1786.04"/>
			<point x="831.46" y="1716.32"/>
			<point x="831.46" y="1660.46" type="qcurve" smooth="yes"/>
			<point x="831.46" y="1603.17"/>
			<point x="760.6" y="1532.88"/>
			<point x="700.88" y="1532.88" type="qcurve" smooth="yes"/>
			<point x="642.59" y="1532.88"/>
			<point x="571.3" y="1604.17"/>
		</contour>
	</outline>
</glyph>
<glyph name="four.lf" format="2">
	<advance width="1156"/>
	<outline>
		<contour>
			<point x="-22.8548387097" y="499" type="line"/>
			<point x="575.1451612903" y="1483" type="line"/>
			<point x="906.1451612903" y="1463" type="line"/>
			<point x="946.1451612903" y="1413" type="line"/>
			<point x="941.1451612903" y="526" type="line"/>
			<point x="940.1451612903" y="89" type="line"/>
			<point x="1102.1451612903" y="54" type="line"/>
			<point x="1102.1451612903" y="0" type="line"/>
			<point x="298.1451612903" y="0" type="line"/>
			<point x="298.1451612903" y="54" type="line"/>
			<point x="475.1451612903" y="89" type="line"/>
			<point x="468.1451612903" y="529" type="line"/>
			<point x="468.1451612903" y="1212" type="line"/>
			<point x="95.1451612903" y="569" type="line"/>
			<point x="92.1451612903" y="554" type="line"/>
			<point x="1142.1451612903" y="563" type="line"/>
			<point x="1142.1451612903" y="479" type="line"/>
			<point x="-11.8548387097" y="448" type="line"/>
		</contour>
	</outline>
</glyph>
<glyph name="four.tab" format="2">
	<advance width="1493"/>
	<outline>
		<contour>
			<point x="54" y="499" type="line"/>
			<point x="777.8870967742" y="1483" type="line"/>
			<point x="1108.8870967742" y="1463" type="line"/>
			<point x="1148.8870967742" y="1448" type="line"/>
			<point x="1143.8870967742" y="526" type="line"/>
			<point x="1142.8870967742" y="89" type="line"/>
			<point x="1340.5322580645" y="54" type="line"/>
			<point x="1340.5322580645" y="0" type="line"/>
			<point x="425.2419354839" y="0" type="line"/>
			<point x="425.2419354839" y="54" type="line"/>
			<point x="677.8870967742" y="89" type="line"/>
			<point x="670.8870967742" y="529" type="line"/>
			<point x="670.8870967742" y="1215.1048387097" type="line"/>
			<point x="177.6451612903" y="569" type="line"/>
			<point x="174.6451612903" y="554" type="line"/>
			<point x="1409" y="563" type="line"/>
			<point x="1409" y="479" type="line"/>
			<point x="65" y="448" type="line"/>
		</contour>
	</outline>
</glyph>
<glyph name="gravecombstack.case" format="2">
	<advance width="951"/>
	<outline>
		<contour>
			<point x="284.63" y="1778.13" type="qcurve" smooth="yes"/>
			<point x="269.71" y="1822.4"/>
			<point x="321.49" y="1926.56"/>
			<point x="375.36" y="1935.89" type="qcurve" smooth="yes"/>
			<point x="429.65" y="1944.79"/>
			<point x="518.19" y="1894.01"/>
			<point x="556.37" y="1851.18" type="qcurve" smooth="yes"/>
			<point x="784.93" y="1637.7" type="line"/>
			<point x="761.5" y="1588.33" type="line"/>
			<point x="439.16" y="1665.07" type="line" smooth="yes"/>
			<point x="374.99" y="1681.33"/>
			<point x="295.25" y="1738.16"/>
		</contour>
	</outline>
</glyph>
<glyph name="horizontalbarH" format="2">
	<advance width="1936"/>
	<outline>
		<contour>
			<point x="1756" y="1035" type="line"/>
			<point x="1574" y="1035" type="line"/>
			<point x="1574" y="1112" type="line"/>
			<point x="1766" y="1112" type="line"/>
		</contour>
		<contour>
			<point x="179" y="1035" type="line"/>
			<point x="170" y="1112" type="line"/>
			<point x="369" y="1112" type="line"/>
			<point x="369" y="1035" type="line"/>
		</contour>
		<contour>
			<point x="369" y="1035" type="line"/>
			<point x="369" y="1112" type="line"/>
			<point x="1574" y="1112" type="line"/>
			<point x="1574" y="1035" type="line"/>
		</contour>
	</outline>
</glyph>
<glyph name="hungarumlautcomb.case" format="2">
	<advance width="896"/>
	<outline>
		<contour>
			<point x="526.04" y="1844.71" type="qcurve" smooth="yes"/>
			<point x="524.75" y="1802.83"/>
			<point x="476.14" y="1752.24"/>
			<point x="436.53" y="1731.67" type="qcurve" smooth="yes"/>
			<point x="171.79" y="1589.86" type="line"/>
			<point x="146.92" y="1619.88" type="line"/>
			<point x="287.06" y="1859" type="line" smooth="yes"/>
			<point x="315.66" y="1907.71"/>
			<point x="382.84" y="1957.9"/>
			<point x="418" y="1956.61" type="qcurve" smooth="yes"/>
			<point x="465.47" y="1954.89"/>
			<point x="527.33" y="1892"/>
		</contour>
		<contour>
			<point x="841.94" y="1836.11" type="qcurve" smooth="yes"/>
			<point x="840.65" y="1794.23"/>
			<point x="792.04" y="1743.64"/>
			<point x="752.43" y="1723.07" type="qcurve" smooth="yes"/>
			<point x="487.69" y="1581.26" type="line"/>
			<point x="462.82" y="1611.28" type="line"/>
			<point x="602.96" y="1850.83" type="line" smooth="yes"/>
			<point x="631.56" y="1899.11"/>
			<point x="698.74" y="1949.3"/>
			<point x="733.9" y="1948.01" type="qcurve" smooth="yes"/>
			<point x="781.37" y="1946.29"/>
			<point x="843.23" y="1883.4"/>
		</contour>
	</outline>
</glyph>
<glyph name="kai-tail" format="2">
  <advance width="1507"/>
  <outline>
    <contour>
      <point x="731" y="-517" type="qcurve" smooth="yes"/>
      <point x="476" y="-517"/>
      <point x="80" y="-333"/>
      <point x="-44" y="-172" type="qcurve"/>
      <point x="21" y="-106" type="line"/>
      <point x="146" y="-222"/>
      <point x="483" y="-344"/>
      <point x="673" y="-344" type="qcurve" smooth="yes"/>
      <point x="942" y="-344" name="inserted"/>
      <point x="1177" y="-100"/>
      <point x="1204" y="106" type="qcurve"/>
      <point x="1498" y="106" type="line"/>
      <point x="1474" y="-184"/>
      <point x="1061" y="-517"/>
    </contour>
  </outline>
</glyph>
<glyph name="soft.bgr" format="2">
  <advance width="1327"/>
  <outline>
    <contour>
      <point x="730" y="-25" type="qcurve" smooth="yes"/>
      <point x="363" y="-22"/>
      <point x="124" y="168"/>
      <point x="125" y="341" type="qcurve" smooth="yes"/>
      <point x="126" y="416"/>
      <point x="126" y="478"/>
      <point x="126" y="518" type="qcurve" smooth="yes"/>
      <point x="123" y="850" type="line"/>
      <point x="7" y="880" type="line"/>
      <point x="7" y="943" type="line"/>
      <point x="484" y="975" type="line"/>
      <point x="562" y="975" type="line"/>
      <point x="599" y="926" type="line"/>
      <point x="598" y="611" type="line"/>
      <point x="764" y="611" type="line" smooth="yes"/>
      <point x="1070.0" y="611.0"/>
      <point x="1317.0" y="454"/>
      <point x="1317" y="302" type="qcurve" smooth="yes"/>
      <point x="1317" y="148"/>
      <point x="1026" y="-28"/>
    </contour>
    <contour>
      <point x="599" y="312" type="line" smooth="yes"/>
      <point x="600" y="172"/>
      <point x="663" y="34"/>
      <point x="731" y="34" type="qcurve" smooth="yes"/>
      <point x="796" y="34"/>
      <point x="857" y="172"/>
      <point x="857" y="298" type="qcurve" smooth="yes"/>
      <point x="857.0" y="413.0"/>
      <point x="787" y="546.0"/>
      <point x="685" y="546" type="qcurve" smooth="yes"/>
      <point x="598" y="546" type="line"/>
    </contour>
  </outline>
</glyph>
<glyph name="three.tab" format="2">
	<advance width="1493"/>
	<outline>
		<contour>
			<point x="49" y="168" type="qcurve"/>
			<point x="93" y="256" type="line"/>
			<point x="95" y="218"/>
			<point x="289" y="84"/>
			<point x="421" y="84" type="qcurve" smooth="yes"/>
			<point x="564" y="84"/>
			<point x="721" y="294"/>
			<point x="721" y="469" type="qcurve" smooth="yes"/>
			<point x="721" y="649"/>
			<point x="551.9112903226" y="793"/>
			<point x="410.9274193548" y="793" type="qcurve" smooth="yes"/>
			<point x="342.1048387097" y="793" type="line"/>
			<point x="338.564516129" y="870" type="line"/>
			<point x="375.6209677419" y="869" type="line" smooth="yes"/>
			<point x="495.7580645161" y="868"/>
			<point x="665.7419354839" y="1025"/>
			<point x="662.7419354839" y="1165" type="qcurve" smooth="yes"/>
			<point x="660.7419354839" y="1283"/>
			<point x="541.7822580645" y="1388"/>
			<point x="434.3387096774" y="1388" type="qcurve" smooth="yes"/>
			<point x="353.0483870968" y="1388"/>
			<point x="198.6774193548" y="1312"/>
			<point x="160.6451612903" y="1265" type="qcurve"/>
			<point x="129.7983870968" y="1347" type="line"/>
			<point x="182.7258064516" y="1408"/>
			<point x="463.25" y="1524"/>
			<point x="679.6935483871" y="1524" type="qcurve" smooth="yes"/>
			<point x="904.8064516129" y="1524"/>
			<point x="1202.5887096774" y="1377"/>
			<point x="1202.5887096774" y="1230" type="qcurve" smooth="yes"/>
			<point x="1202.5887096774" y="1083"/>
			<point x="989.435483871" y="892.7177419355"/>
			<point x="772.7338709677" y="866" type="qcurve"/>
			<point x="772.7338709677" y="859" type="line"/>
			<point x="990.7419354839" y="849"/>
			<point x="1287" y="665"/>
			<point x="1287" y="469" type="qcurve" smooth="yes"/>
			<point x="1287" y="268"/>
			<point x="940.6774193548" y="-29"/>
			<point x="631.0241935484" y="-29" type="qcurve" smooth="yes"/>
			<point x="355.7096774194" y="-29"/>
			<point x="67" y="125"/>
		</contour>
	</outline>
</glyph>
<glyph name="tildecombstack.case" format="2">
	<advance width="896"/>
	<outline>
		<contour>
			<point x="93.72" y="1645.96" type="line"/>
			<point x="114.88" y="1715.66"/>
			<point x="223.94" y="1829.42"/>
			<point x="304.53" y="1829.42" type="qcurve" smooth="yes"/>
			<point x="338.12" y="1829.42"/>
			<point x="428.86" y="1804.7"/>
			<point x="474.85" y="1789.42" type="qcurve" smooth="yes"/>
			<point x="519.97" y="1774.43"/>
			<point x="599.88" y="1751.69"/>
			<point x="643.76" y="1751.69" type="qcurve" smooth="yes"/>
			<point x="674.78" y="1751.69"/>
			<point x="730.26" y="1778.59"/>
			<point x="755.53" y="1804.15" type="qcurve"/>
			<point x="802.71" y="1763.39" type="line"/>
			<point x="777.13" y="1698.23"/>
			<point x="669.06" y="1585.64"/>
			<point x="598.62" y="1585.64" type="qcurve" smooth="yes"/>
			<point x="561.88" y="1585.64"/>
			<point x="471.97" y="1608.94"/>
			<point x="430.7" y="1623.08" type="qcurve" smooth="yes"/>
			<point x="385.7" y="1638.51"/>
			<point x="299.81" y="1663.52"/>
			<point x="270.09" y="1663.52" type="qcurve" smooth="yes"/>
			<point x="228.22" y="1663.52"/>
			<point x="157.89" y="1633.92"/>
			<point x="133.89" y="1608.92" type="qcurve"/>
		</contour>
	</outline>
</glyph>
<glyph name="two.lf" format="2">
	<advance width="1107"/>
	<outline>
		<contour>
			<point x="43" y="0" type="line"/>
			<point x="43" y="171" type="line"/>
			<point x="38" y="303"/>
			<point x="197" y="563"/>
			<point x="296" y="654" type="qcurve" smooth="yes"/>
			<point x="382" y="727"/>
			<point x="475" y="939"/>
			<point x="475" y="1093" type="qcurve" smooth="yes"/>
			<point x="475" y="1264"/>
			<point x="380" y="1367"/>
			<point x="296" y="1367" type="qcurve" smooth="yes"/>
			<point x="254" y="1367"/>
			<point x="145" y="1283"/>
			<point x="129" y="1215" type="qcurve"/>
			<point x="84" y="1315" type="line"/>
			<point x="135" y="1407"/>
			<point x="394" y="1526"/>
			<point x="561" y="1526" type="qcurve" smooth="yes"/>
			<point x="778" y="1526"/>
			<point x="984" y="1337"/>
			<point x="989" y="1176" type="qcurve" smooth="yes"/>
			<point x="995" y="998"/>
			<point x="788" y="740"/>
			<point x="603" y="641" type="qcurve" smooth="yes"/>
			<point x="403" y="529"/>
			<point x="245" y="414"/>
			<point x="225" y="338" type="qcurve"/>
			<point x="227" y="323" type="line"/>
			<point x="1039" y="323" type="line"/>
			<point x="1039" y="0" type="line"/>
		</contour>
	</outline>
</glyph>
<glyph name="ze.bgr" format="2">
  <advance width="1091"/>
  <outline>
    <contour>
      <point x="1051" y="-48" type="qcurve" smooth="yes"/>
      <point x="1051" y="-232"/>
      <point x="790" y="-482"/>
      <point x="528" y="-482" type="qcurve" smooth="yes"/>
      <point x="364" y="-482"/>
      <point x="194" y="-416"/>
      <point x="148" y="-386" type="qcurve"/>
      <point x="115" y="-460" type="line"/>
      <point x="50" y="-460" type="line"/>
      <point x="50" y="-120" type="line"/>
      <point x="128" y="-120" type="line"/>
      <point x="157" y="-222" type="line" smooth="yes"/>
      <point x="181" y="-308"/>
      <point x="290" y="-390"/>
      <point x="373" y="-390" type="qcurve" smooth="yes"/>
      <point x="468" y="-390"/>
      <point x="557" y="-214"/>
      <point x="557" y="-39" type="qcurve" smooth="yes"/>
      <point x="557" y="145"/>
      <point x="459" y="299"/>
      <point x="340" y="296" type="qcurve" smooth="yes"/>
      <point x="250" y="294" type="line"/>
      <point x="250" y="364" type="line"/>
      <point x="340" y="362" type="line" smooth="yes"/>
      <point x="447" y="360"/>
      <point x="513" y="507"/>
      <point x="513" y="639" type="qcurve" smooth="yes"/>
      <point x="513" y="777"/>
      <point x="454" y="907"/>
      <point x="373" y="907" type="qcurve" smooth="yes"/>
      <point x="293" y="907"/>
      <point x="203" y="812"/>
      <point x="183" y="743" type="qcurve" smooth="yes"/>
      <point x="154" y="641" type="line"/>
      <point x="76" y="641" type="line"/>
      <point x="76" y="981" type="line"/>
      <point x="141" y="981" type="line"/>
      <point x="174" y="907" type="line"/>
      <point x="218" y="945"/>
      <point x="380" y="997"/>
      <point x="517" y="997" type="qcurve" smooth="yes"/>
      <point x="750" y="997"/>
      <point x="974" y="827"/>
      <point x="974" y="689" type="qcurve" smooth="yes"/>
      <point x="974" y="548"/>
      <point x="777" y="367"/>
      <point x="631" y="351" type="qcurve"/>
      <point x="631" y="347" type="line"/>
      <point x="859" y="317"/>
      <point x="1051" y="140"/>
    </contour>
  </outline>
</glyph>
<glyph name="zhe.bgr" format="2">
  <advance width="1895"/>
  <outline>
    <contour>
      <point x="617" y="0" type="line"/>
      <point x="617" y="61" type="line"/>
      <point x="707" y="96" type="line"/>
      <point x="709" y="482" type="line"/>
      <point x="707" y="1396" type="line"/>
      <point x="583" y="1436" type="line"/>
      <point x="583" y="1500" type="line"/>
      <point x="1103" y="1512" type="line"/>
      <point x="1128" y="1511" type="line"/>
      <point x="1176" y="1465" type="line"/>
      <point x="1179" y="516" type="line"/>
      <point x="1176" y="96" type="line"/>
      <point x="1268" y="61" type="line"/>
      <point x="1268" y="0" type="line"/>
    </contour>
    <contour>
      <point x="943" y="190" type="line"/>
      <point x="943" y="274" type="line"/>
      <point x="1544" y="867" type="line"/>
      <point x="1448" y="897" type="line"/>
      <point x="1448" y="970" type="line"/>
      <point x="1836" y="970" type="line"/>
      <point x="1836" y="897" type="line"/>
      <point x="1696" y="867" type="line"/>
    </contour>
    <contour>
      <point x="1228" y="489" type="line"/>
      <point x="1562" y="816" type="line"/>
      <point x="1850" y="98" type="line"/>
      <point x="1934" y="61" type="line"/>
      <point x="1934" y="0" type="line"/>
      <point x="1347" y="0" type="line"/>
      <point x="1343" y="46" type="line"/>
      <point x="1355" y="89" type="line"/>
    </contour>
    <contour>
      <point x="942" y="190" type="line"/>
      <point x="189" y="867" type="line"/>
      <point x="49" y="897" type="line"/>
      <point x="49" y="970" type="line"/>
      <point x="437" y="970" type="line"/>
      <point x="437" y="897" type="line"/>
      <point x="341" y="867" type="line"/>
      <point x="942" y="274" type="line"/>
    </contour>
    <contour>
      <point x="657" y="489" type="line"/>
      <point x="530" y="89" type="line"/>
      <point x="542" y="46" type="line"/>
      <point x="538" y="0" type="line"/>
      <point x="-39" y="0" type="line"/>
      <point x="-39" y="61" type="line"/>
      <point x="45" y="98" type="line"/>
      <point x="333" y="816" type="line"/>
    </contour>
  </outline>
</glyph>
